<mxfile host="Electron" modified="2024-01-17T08:08:42.348Z" agent="Mozilla/5.0 (Macintosh; Intel Mac OS X 10_15_7) AppleWebKit/537.36 (KHTML, like Gecko) draw.io/22.1.18 Chrome/120.0.6099.199 Electron/28.1.2 Safari/537.36" version="22.1.18" etag="KFkdRDr84grbNYRmhGyl" type="device">
  <diagram id="KAE_VDiI3zcYsobhMcIx" name="第 1 页">
    <mxGraphModel dx="1907" dy="703" grid="1" gridSize="10" guides="1" tooltips="1" connect="1" arrows="1" fold="1" page="1" pageScale="1" pageWidth="827" pageHeight="1169" math="0" shadow="0">
      <root>
        <mxCell id="0" />
        <mxCell id="1" parent="0" />
        <mxCell id="248" value="" style="group;fontStyle=1;fontFamily=Garamond;fontSize=17;" parent="1" vertex="1" connectable="0">
          <mxGeometry x="660" y="160" width="110" height="510" as="geometry" />
        </mxCell>
        <mxCell id="253" value="" style="rounded=0;whiteSpace=wrap;html=1;fontSize=17;fontStyle=1;fontFamily=Garamond;strokeWidth=2;" parent="248" vertex="1">
          <mxGeometry x="-10" y="-20" width="110" height="530" as="geometry" />
        </mxCell>
        <mxCell id="236" value="" style="rounded=0;whiteSpace=wrap;html=1;fillColor=#cdeb8b;strokeColor=none;fontStyle=1;fontSize=17;container=0;fontFamily=Garamond;" parent="248" vertex="1">
          <mxGeometry width="10" height="30" as="geometry" />
        </mxCell>
        <mxCell id="237" value="" style="rounded=0;whiteSpace=wrap;html=1;fillColor=#e1d5e7;strokeColor=none;fontStyle=1;fontSize=17;container=0;fontFamily=Garamond;" parent="248" vertex="1">
          <mxGeometry x="20" width="10" height="30" as="geometry" />
        </mxCell>
        <mxCell id="238" value="" style="rounded=0;whiteSpace=wrap;html=1;fillColor=#ffcccc;strokeColor=none;fontStyle=1;fontSize=17;container=0;fontFamily=Garamond;" parent="248" vertex="1">
          <mxGeometry x="40" width="10" height="30" as="geometry" />
        </mxCell>
        <mxCell id="239" value="" style="rounded=0;whiteSpace=wrap;html=1;fillColor=#ffcc99;strokeColor=none;fontStyle=1;fontSize=17;container=0;fontFamily=Garamond;" parent="248" vertex="1">
          <mxGeometry x="60" width="10" height="30" as="geometry" />
        </mxCell>
        <mxCell id="240" value="&lt;span style=&quot;font-size: 14px;&quot;&gt;Stream Private&amp;nbsp;Memory&lt;/span&gt;" style="text;html=1;strokeColor=none;fillColor=none;align=center;verticalAlign=middle;whiteSpace=wrap;rounded=0;container=0;fontStyle=1;fontFamily=Garamond;fontSize=14;" parent="248" vertex="1">
          <mxGeometry x="15" y="40" width="60" height="30" as="geometry" />
        </mxCell>
        <mxCell id="2" value="" style="group;fontStyle=1;fontFamily=Garamond;fillColor=#cce5ff;strokeColor=#36393d;strokeWidth=2;fontSize=17;" parent="1" vertex="1" connectable="0">
          <mxGeometry x="-90" y="140" width="740" height="530" as="geometry" />
        </mxCell>
        <mxCell id="3" value="" style="rounded=0;whiteSpace=wrap;html=1;fillColor=default;fontStyle=1;fontSize=17;fontFamily=Garamond;strokeWidth=2;" parent="2" vertex="1">
          <mxGeometry x="120" y="50" width="620" height="120" as="geometry" />
        </mxCell>
        <mxCell id="4" value="" style="rounded=0;whiteSpace=wrap;html=1;fillColor=default;fontStyle=1;fontSize=17;fontFamily=Garamond;strokeWidth=2;" parent="2" vertex="1">
          <mxGeometry x="120" width="620" height="50" as="geometry" />
        </mxCell>
        <mxCell id="5" value="" style="group;fontStyle=1;fontFamily=Garamond;strokeColor=default;strokeWidth=2;fontSize=17;" parent="2" vertex="1" connectable="0">
          <mxGeometry width="120" height="530" as="geometry" />
        </mxCell>
        <mxCell id="8" value="&lt;font style=&quot;font-size: 17px;&quot;&gt;Stream4&amp;nbsp;&lt;/font&gt;" style="rounded=0;whiteSpace=wrap;html=1;fillColor=default;fontStyle=1;fontFamily=Garamond;strokeWidth=2;fontSize=17;" parent="5" vertex="1">
          <mxGeometry y="410" width="120" height="120" as="geometry" />
        </mxCell>
        <mxCell id="9" value="&lt;font style=&quot;font-size: 17px;&quot;&gt;Stream 3&lt;/font&gt;" style="rounded=0;whiteSpace=wrap;html=1;fillColor=default;fontStyle=1;fontFamily=Garamond;strokeWidth=2;fontSize=17;" parent="5" vertex="1">
          <mxGeometry y="290" width="120" height="120" as="geometry" />
        </mxCell>
        <mxCell id="10" value="&lt;font style=&quot;font-size: 17px;&quot;&gt;Stream 2&lt;br style=&quot;font-size: 17px;&quot;&gt;&lt;/font&gt;" style="rounded=0;whiteSpace=wrap;html=1;fillColor=default;fontStyle=1;fontFamily=Garamond;strokeWidth=2;fontSize=17;" parent="5" vertex="1">
          <mxGeometry y="170" width="120" height="120" as="geometry" />
        </mxCell>
        <mxCell id="11" value="&lt;font style=&quot;font-size: 17px;&quot;&gt;Stream 1&lt;br style=&quot;font-size: 17px;&quot;&gt;&lt;/font&gt;" style="rounded=0;whiteSpace=wrap;html=1;fillColor=default;fontStyle=1;fontFamily=Garamond;strokeWidth=2;fontSize=17;" parent="5" vertex="1">
          <mxGeometry y="50" width="120" height="120" as="geometry" />
        </mxCell>
        <mxCell id="12" value="&lt;font style=&quot;font-size: 17px;&quot;&gt;&lt;font style=&quot;font-size: 17px;&quot;&gt;Init&lt;/font&gt;&lt;br style=&quot;font-size: 17px;&quot;&gt;&lt;/font&gt;" style="rounded=0;whiteSpace=wrap;html=1;fillColor=default;fontStyle=1;fontFamily=Garamond;strokeWidth=2;fontSize=17;" parent="5" vertex="1">
          <mxGeometry width="120" height="50" as="geometry" />
        </mxCell>
        <mxCell id="13" value="" style="rounded=0;whiteSpace=wrap;html=1;fillColor=default;fontStyle=1;fontSize=17;fontFamily=Garamond;strokeWidth=2;" parent="2" vertex="1">
          <mxGeometry x="120" y="170" width="620" height="120" as="geometry" />
        </mxCell>
        <mxCell id="14" value="" style="rounded=0;whiteSpace=wrap;html=1;fillColor=default;fontStyle=1;fontSize=17;fontFamily=Garamond;strokeWidth=2;" parent="2" vertex="1">
          <mxGeometry x="120" y="290" width="620" height="120" as="geometry" />
        </mxCell>
        <mxCell id="15" value="" style="rounded=0;whiteSpace=wrap;html=1;fillColor=default;fontStyle=1;fontSize=17;fontFamily=Garamond;strokeWidth=2;" parent="2" vertex="1">
          <mxGeometry x="120" y="410" width="620" height="120" as="geometry" />
        </mxCell>
        <mxCell id="16" value="&lt;span style=&quot;font-size: 17px;&quot;&gt;Lindked List with memory address&lt;/span&gt;" style="text;html=1;strokeColor=none;fillColor=none;align=center;verticalAlign=middle;whiteSpace=wrap;rounded=0;fontStyle=1;fontFamily=Garamond;fontSize=17;" parent="2" vertex="1">
          <mxGeometry x="450" y="120" width="230" height="30" as="geometry" />
        </mxCell>
        <mxCell id="250" style="edgeStyle=none;html=1;entryX=1;entryY=0.5;entryDx=0;entryDy=0;fontStyle=1;fontFamily=Garamond;strokeWidth=2;fontSize=17;" parent="2" source="15" target="3" edge="1">
          <mxGeometry relative="1" as="geometry">
            <Array as="points">
              <mxPoint x="790" y="470" />
              <mxPoint x="790" y="110" />
            </Array>
          </mxGeometry>
        </mxCell>
        <mxCell id="252" value="&lt;font style=&quot;font-size: 17px;&quot;&gt;Repeat&lt;/font&gt;" style="edgeLabel;html=1;align=center;verticalAlign=middle;resizable=0;points=[];fontStyle=1;fontFamily=Garamond;fontSize=17;" parent="250" vertex="1" connectable="0">
          <mxGeometry x="0.0041" y="1" relative="1" as="geometry">
            <mxPoint as="offset" />
          </mxGeometry>
        </mxCell>
        <mxCell id="20" value="" style="group;fontStyle=1;fontSize=17;fontFamily=Garamond;" parent="1" vertex="1" connectable="0">
          <mxGeometry x="40" y="210" width="560" height="85" as="geometry" />
        </mxCell>
        <mxCell id="21" value="Shared Pool" style="text;html=1;align=center;verticalAlign=middle;resizable=0;points=[];autosize=1;strokeColor=none;fillColor=none;fontStyle=1;fontSize=17;fontFamily=Garamond;" parent="20" vertex="1">
          <mxGeometry x="20" y="50" width="120" height="30" as="geometry" />
        </mxCell>
        <mxCell id="22" value="" style="group;fontStyle=1;fontSize=17;fontFamily=Garamond;" parent="20" vertex="1" connectable="0">
          <mxGeometry width="80" height="30" as="geometry" />
        </mxCell>
        <mxCell id="23" value="" style="rounded=0;whiteSpace=wrap;html=1;fillColor=#d5e8d4;strokeColor=#82b366;fontStyle=1;fontSize=17;fontFamily=Garamond;" parent="22" vertex="1">
          <mxGeometry x="40" width="10" height="30" as="geometry" />
        </mxCell>
        <mxCell id="24" style="edgeStyle=none;jumpSize=2;html=1;entryX=0;entryY=0.5;entryDx=0;entryDy=0;startSize=2;endSize=2;fontStyle=1;fontSize=17;fontFamily=Garamond;" parent="22" source="25" target="23" edge="1">
          <mxGeometry relative="1" as="geometry" />
        </mxCell>
        <mxCell id="25" value="S1" style="text;html=1;strokeColor=none;fillColor=none;align=center;verticalAlign=middle;whiteSpace=wrap;rounded=0;fontStyle=1;fontSize=17;fontFamily=Garamond;" parent="22" vertex="1">
          <mxGeometry width="30" height="30" as="geometry" />
        </mxCell>
        <mxCell id="26" value="" style="group;fontStyle=1;fontSize=17;fontFamily=Garamond;" parent="20" vertex="1" connectable="0">
          <mxGeometry x="240" width="80" height="30" as="geometry" />
        </mxCell>
        <mxCell id="27" value="" style="rounded=0;whiteSpace=wrap;html=1;fillColor=#e1d5e7;strokeColor=#9673a6;fontStyle=1;fontSize=17;fontFamily=Garamond;" parent="26" vertex="1">
          <mxGeometry x="70" width="10" height="30" as="geometry" />
        </mxCell>
        <mxCell id="28" style="edgeStyle=none;jumpSize=2;html=1;entryX=0;entryY=0.5;entryDx=0;entryDy=0;startSize=2;endSize=2;fontStyle=1;fontSize=17;fontFamily=Garamond;" parent="26" source="29" target="27" edge="1">
          <mxGeometry relative="1" as="geometry" />
        </mxCell>
        <mxCell id="29" value="S2" style="text;html=1;strokeColor=none;fillColor=none;align=center;verticalAlign=middle;whiteSpace=wrap;rounded=0;fontStyle=1;fontSize=17;fontFamily=Garamond;" parent="26" vertex="1">
          <mxGeometry width="30" height="30" as="geometry" />
        </mxCell>
        <mxCell id="30" value="" style="group;fontStyle=1;fontSize=17;fontFamily=Garamond;" parent="20" vertex="1" connectable="0">
          <mxGeometry x="360" width="80" height="30" as="geometry" />
        </mxCell>
        <mxCell id="31" value="" style="rounded=0;whiteSpace=wrap;html=1;fillColor=#f8cecc;strokeColor=#b85450;fontStyle=1;fontSize=17;fontFamily=Garamond;" parent="30" vertex="1">
          <mxGeometry x="70" width="10" height="30" as="geometry" />
        </mxCell>
        <mxCell id="32" style="edgeStyle=none;jumpSize=2;html=1;entryX=0;entryY=0.5;entryDx=0;entryDy=0;startSize=2;endSize=2;fontStyle=1;fontSize=17;fontFamily=Garamond;" parent="30" source="33" target="31" edge="1">
          <mxGeometry relative="1" as="geometry" />
        </mxCell>
        <mxCell id="33" value="S3" style="text;html=1;strokeColor=none;fillColor=none;align=center;verticalAlign=middle;whiteSpace=wrap;rounded=0;fontStyle=1;fontSize=17;fontFamily=Garamond;" parent="30" vertex="1">
          <mxGeometry width="30" height="30" as="geometry" />
        </mxCell>
        <mxCell id="34" value="" style="group;fontStyle=1;fontSize=17;fontFamily=Garamond;" parent="20" vertex="1" connectable="0">
          <mxGeometry x="480" width="80" height="30" as="geometry" />
        </mxCell>
        <mxCell id="35" value="" style="rounded=0;whiteSpace=wrap;html=1;fillColor=#fff2cc;strokeColor=#d6b656;fontStyle=1;fontSize=17;fontFamily=Garamond;" parent="34" vertex="1">
          <mxGeometry x="70" width="10" height="30" as="geometry" />
        </mxCell>
        <mxCell id="36" style="edgeStyle=none;jumpSize=2;html=1;entryX=0;entryY=0.5;entryDx=0;entryDy=0;startSize=2;endSize=2;fontStyle=1;fontSize=17;fontFamily=Garamond;" parent="34" source="37" target="35" edge="1">
          <mxGeometry relative="1" as="geometry" />
        </mxCell>
        <mxCell id="37" value="S4" style="text;html=1;strokeColor=none;fillColor=none;align=center;verticalAlign=middle;whiteSpace=wrap;rounded=0;fontStyle=1;fontSize=17;fontFamily=Garamond;" parent="34" vertex="1">
          <mxGeometry width="30" height="30" as="geometry" />
        </mxCell>
        <mxCell id="38" style="edgeStyle=none;jumpSize=2;html=1;entryX=0;entryY=0.5;entryDx=0;entryDy=0;strokeColor=default;endArrow=classicThin;endFill=1;startSize=2;endSize=2;fontStyle=1;fontSize=17;fontFamily=Garamond;" parent="20" source="23" target="44" edge="1">
          <mxGeometry relative="1" as="geometry" />
        </mxCell>
        <mxCell id="39" value="" style="group;fillColor=default;fontStyle=1;fontSize=17;fontFamily=Garamond;" parent="20" vertex="1" connectable="0">
          <mxGeometry x="60" width="500" height="85" as="geometry" />
        </mxCell>
        <mxCell id="40" value="" style="rounded=0;whiteSpace=wrap;html=1;fillColor=#cce5ff;container=0;strokeColor=none;fontStyle=1;fontSize=17;fontFamily=Garamond;" parent="39" vertex="1">
          <mxGeometry x="10" width="10" height="30" as="geometry" />
        </mxCell>
        <mxCell id="41" value="" style="rounded=0;whiteSpace=wrap;html=1;fillColor=#cce5ff;container=0;strokeColor=none;fontStyle=1;fontSize=17;fontFamily=Garamond;" parent="39" vertex="1">
          <mxGeometry x="25" width="10" height="30" as="geometry" />
        </mxCell>
        <mxCell id="42" style="edgeStyle=none;jumpSize=2;html=1;entryX=0;entryY=0.5;entryDx=0;entryDy=0;strokeColor=default;endArrow=classicThin;endFill=1;startSize=2;endSize=2;fontStyle=1;fontSize=17;fontFamily=Garamond;" parent="39" source="40" target="41" edge="1">
          <mxGeometry relative="1" as="geometry" />
        </mxCell>
        <mxCell id="43" style="edgeStyle=none;jumpSize=2;html=1;entryX=0;entryY=0.5;entryDx=0;entryDy=0;strokeColor=default;endArrow=classicThin;endFill=1;startSize=2;endSize=2;fontStyle=1;fontSize=17;fontFamily=Garamond;" parent="39" source="44" target="40" edge="1">
          <mxGeometry relative="1" as="geometry" />
        </mxCell>
        <mxCell id="44" value="" style="rounded=0;whiteSpace=wrap;html=1;fillColor=#cce5ff;container=0;strokeColor=none;fontStyle=1;fontSize=17;fontFamily=Garamond;" parent="39" vertex="1">
          <mxGeometry width="6" height="30" as="geometry" />
        </mxCell>
        <mxCell id="45" value="" style="rounded=0;whiteSpace=wrap;html=1;fillColor=#cce5ff;container=0;strokeColor=none;fontStyle=1;fontSize=17;fontFamily=Garamond;" parent="39" vertex="1">
          <mxGeometry x="40" width="16" height="30" as="geometry" />
        </mxCell>
        <mxCell id="46" style="edgeStyle=none;jumpSize=2;html=1;entryX=0;entryY=0.5;entryDx=0;entryDy=0;strokeColor=default;endArrow=classicThin;endFill=1;startSize=2;endSize=2;fontStyle=1;fontSize=17;fontFamily=Garamond;" parent="39" source="41" target="45" edge="1">
          <mxGeometry relative="1" as="geometry" />
        </mxCell>
        <mxCell id="47" value="" style="rounded=0;whiteSpace=wrap;html=1;fillColor=#cce5ff;container=0;strokeColor=none;fontStyle=1;fontSize=17;fontFamily=Garamond;" parent="39" vertex="1">
          <mxGeometry x="78" width="16" height="30" as="geometry" />
        </mxCell>
        <mxCell id="48" style="edgeStyle=none;jumpSize=2;html=1;entryX=0;entryY=0.5;entryDx=0;entryDy=0;startSize=2;endSize=2;strokeColor=default;dashed=1;dashPattern=1 1;endArrow=none;endFill=0;fontStyle=1;fontSize=17;fontFamily=Garamond;" parent="39" source="45" target="47" edge="1">
          <mxGeometry relative="1" as="geometry" />
        </mxCell>
        <mxCell id="49" value="..." style="edgeLabel;html=1;align=center;verticalAlign=middle;resizable=0;points=[];fontStyle=1;fontFamily=Garamond;fontSize=17;" parent="48" vertex="1" connectable="0">
          <mxGeometry x="-0.1818" y="2" relative="1" as="geometry">
            <mxPoint as="offset" />
          </mxGeometry>
        </mxCell>
        <mxCell id="50" value="" style="rounded=0;whiteSpace=wrap;html=1;fillColor=#cce5ff;container=0;strokeColor=none;fontStyle=1;fontSize=17;fontFamily=Garamond;" parent="39" vertex="1">
          <mxGeometry x="100" width="20" height="30" as="geometry" />
        </mxCell>
        <mxCell id="51" style="edgeStyle=none;jumpSize=2;html=1;entryX=0;entryY=0.5;entryDx=0;entryDy=0;strokeColor=default;endArrow=classicThin;endFill=1;startSize=2;endSize=2;fontStyle=1;fontSize=17;fontFamily=Garamond;" parent="39" source="47" target="50" edge="1">
          <mxGeometry relative="1" as="geometry" />
        </mxCell>
        <mxCell id="52" value="" style="rounded=0;whiteSpace=wrap;html=1;fillColor=#dae8fc;container=0;strokeColor=#6c8ebf;fontStyle=1;fontSize=17;fontFamily=Garamond;" parent="39" vertex="1">
          <mxGeometry x="125" width="40" height="30" as="geometry" />
        </mxCell>
        <mxCell id="53" style="edgeStyle=none;jumpSize=2;html=1;entryX=0;entryY=0.5;entryDx=0;entryDy=0;strokeColor=default;endArrow=classicThin;endFill=1;startSize=2;endSize=2;fontStyle=1;fontSize=17;fontFamily=Garamond;" parent="39" source="50" target="52" edge="1">
          <mxGeometry relative="1" as="geometry" />
        </mxCell>
        <mxCell id="282" value="" style="group;fontStyle=1;fontSize=17;fontFamily=Garamond;" parent="39" vertex="1" connectable="0">
          <mxGeometry x="-60" width="560" height="85" as="geometry" />
        </mxCell>
        <mxCell id="283" value="Shared Pool" style="text;html=1;align=center;verticalAlign=middle;resizable=0;points=[];autosize=1;strokeColor=none;fillColor=none;fontStyle=1;fontSize=17;fontFamily=Garamond;" parent="282" vertex="1">
          <mxGeometry x="20" y="50" width="120" height="30" as="geometry" />
        </mxCell>
        <mxCell id="284" value="" style="group;fontStyle=1;fontSize=17;fontFamily=Garamond;" parent="282" vertex="1" connectable="0">
          <mxGeometry width="80" height="30" as="geometry" />
        </mxCell>
        <mxCell id="285" value="" style="rounded=0;whiteSpace=wrap;html=1;fillColor=#cdeb8b;strokeColor=none;fontStyle=1;fontSize=17;fontFamily=Garamond;" parent="284" vertex="1">
          <mxGeometry x="40" width="10" height="30" as="geometry" />
        </mxCell>
        <mxCell id="286" style="edgeStyle=none;jumpSize=2;html=1;entryX=0;entryY=0.5;entryDx=0;entryDy=0;startSize=2;endSize=2;fontStyle=1;fontSize=17;fontFamily=Garamond;" parent="284" source="287" target="285" edge="1">
          <mxGeometry relative="1" as="geometry" />
        </mxCell>
        <mxCell id="287" value="S1" style="text;html=1;strokeColor=none;fillColor=none;align=center;verticalAlign=middle;whiteSpace=wrap;rounded=0;fontStyle=1;fontSize=17;fontFamily=Garamond;" parent="284" vertex="1">
          <mxGeometry width="30" height="30" as="geometry" />
        </mxCell>
        <mxCell id="288" value="" style="group;fontStyle=1;fontSize=17;fontFamily=Garamond;" parent="282" vertex="1" connectable="0">
          <mxGeometry x="240" width="80" height="30" as="geometry" />
        </mxCell>
        <mxCell id="289" value="" style="rounded=0;whiteSpace=wrap;html=1;fillColor=#e1d5e7;strokeColor=none;fontStyle=1;fontSize=17;fontFamily=Garamond;" parent="288" vertex="1">
          <mxGeometry x="70" width="10" height="30" as="geometry" />
        </mxCell>
        <mxCell id="290" style="edgeStyle=none;jumpSize=2;html=1;entryX=0;entryY=0.5;entryDx=0;entryDy=0;startSize=2;endSize=2;fontStyle=1;fontSize=17;fontFamily=Garamond;" parent="288" source="291" target="289" edge="1">
          <mxGeometry relative="1" as="geometry" />
        </mxCell>
        <mxCell id="291" value="S2" style="text;html=1;strokeColor=none;fillColor=none;align=center;verticalAlign=middle;whiteSpace=wrap;rounded=0;fontStyle=1;fontSize=17;fontFamily=Garamond;" parent="288" vertex="1">
          <mxGeometry width="30" height="30" as="geometry" />
        </mxCell>
        <mxCell id="292" value="" style="group;fontStyle=1;fontSize=17;fontFamily=Garamond;" parent="282" vertex="1" connectable="0">
          <mxGeometry x="360" width="80" height="30" as="geometry" />
        </mxCell>
        <mxCell id="293" value="" style="rounded=0;whiteSpace=wrap;html=1;fillColor=#ffcccc;strokeColor=none;fontStyle=1;fontSize=17;fontFamily=Garamond;" parent="292" vertex="1">
          <mxGeometry x="70" width="10" height="30" as="geometry" />
        </mxCell>
        <mxCell id="294" style="edgeStyle=none;jumpSize=2;html=1;entryX=0;entryY=0.5;entryDx=0;entryDy=0;startSize=2;endSize=2;fontStyle=1;fontSize=17;fontFamily=Garamond;" parent="292" source="295" target="293" edge="1">
          <mxGeometry relative="1" as="geometry" />
        </mxCell>
        <mxCell id="295" value="S3" style="text;html=1;strokeColor=none;fillColor=none;align=center;verticalAlign=middle;whiteSpace=wrap;rounded=0;fontStyle=1;fontSize=17;fontFamily=Garamond;" parent="292" vertex="1">
          <mxGeometry width="30" height="30" as="geometry" />
        </mxCell>
        <mxCell id="296" value="" style="group;fontStyle=1;fontSize=17;fontFamily=Garamond;" parent="282" vertex="1" connectable="0">
          <mxGeometry x="480" width="80" height="30" as="geometry" />
        </mxCell>
        <mxCell id="297" value="" style="rounded=0;whiteSpace=wrap;html=1;fillColor=#ffcc99;strokeColor=none;fontStyle=1;fontSize=17;fontFamily=Garamond;" parent="296" vertex="1">
          <mxGeometry x="70" width="10" height="30" as="geometry" />
        </mxCell>
        <mxCell id="298" style="edgeStyle=none;jumpSize=2;html=1;entryX=0;entryY=0.5;entryDx=0;entryDy=0;startSize=2;endSize=2;fontStyle=1;fontSize=17;fontFamily=Garamond;" parent="296" source="299" target="297" edge="1">
          <mxGeometry relative="1" as="geometry" />
        </mxCell>
        <mxCell id="299" value="S4" style="text;html=1;strokeColor=none;fillColor=none;align=center;verticalAlign=middle;whiteSpace=wrap;rounded=0;fontStyle=1;fontSize=17;fontFamily=Garamond;" parent="296" vertex="1">
          <mxGeometry width="30" height="30" as="geometry" />
        </mxCell>
        <mxCell id="300" style="edgeStyle=none;jumpSize=2;html=1;entryX=0;entryY=0.5;entryDx=0;entryDy=0;strokeColor=default;endArrow=classicThin;endFill=1;startSize=2;endSize=2;fontStyle=1;fontSize=17;fontFamily=Garamond;" parent="282" source="285" target="306" edge="1">
          <mxGeometry relative="1" as="geometry" />
        </mxCell>
        <mxCell id="301" value="" style="group;fillColor=default;fontStyle=1;fontSize=17;fontFamily=Garamond;" parent="282" vertex="1" connectable="0">
          <mxGeometry x="60" width="170" height="30" as="geometry" />
        </mxCell>
        <mxCell id="302" value="" style="rounded=0;whiteSpace=wrap;html=1;fillColor=#cce5ff;container=0;strokeColor=none;fontStyle=1;fontSize=17;fontFamily=Garamond;" parent="301" vertex="1">
          <mxGeometry x="10" width="10" height="30" as="geometry" />
        </mxCell>
        <mxCell id="303" value="" style="rounded=0;whiteSpace=wrap;html=1;fillColor=#dae8fc;container=0;strokeColor=#000000;fontStyle=1;fontSize=17;fontFamily=Garamond;" parent="301" vertex="1">
          <mxGeometry x="25" width="10" height="30" as="geometry" />
        </mxCell>
        <mxCell id="304" style="edgeStyle=none;jumpSize=2;html=1;entryX=0;entryY=0.5;entryDx=0;entryDy=0;strokeColor=default;endArrow=classicThin;endFill=1;startSize=2;endSize=2;fontStyle=1;fontSize=17;fontFamily=Garamond;" parent="301" source="302" target="303" edge="1">
          <mxGeometry relative="1" as="geometry" />
        </mxCell>
        <mxCell id="305" style="edgeStyle=none;jumpSize=2;html=1;entryX=0;entryY=0.5;entryDx=0;entryDy=0;strokeColor=default;endArrow=classicThin;endFill=1;startSize=2;endSize=2;fontStyle=1;fontSize=17;fontFamily=Garamond;" parent="301" source="306" target="302" edge="1">
          <mxGeometry relative="1" as="geometry" />
        </mxCell>
        <mxCell id="306" value="" style="rounded=0;whiteSpace=wrap;html=1;fillColor=#cce5ff;container=0;strokeColor=none;fontStyle=1;fontSize=17;fontFamily=Garamond;" parent="301" vertex="1">
          <mxGeometry width="6" height="30" as="geometry" />
        </mxCell>
        <mxCell id="307" value="" style="rounded=0;whiteSpace=wrap;html=1;fillColor=#dae8fc;container=0;strokeColor=#000000;fontStyle=1;fontSize=17;fontFamily=Garamond;" parent="301" vertex="1">
          <mxGeometry x="40" width="16" height="30" as="geometry" />
        </mxCell>
        <mxCell id="308" style="edgeStyle=none;jumpSize=2;html=1;entryX=0;entryY=0.5;entryDx=0;entryDy=0;strokeColor=default;endArrow=classicThin;endFill=1;startSize=2;endSize=2;fontStyle=1;fontSize=17;fontFamily=Garamond;" parent="301" source="303" target="307" edge="1">
          <mxGeometry relative="1" as="geometry" />
        </mxCell>
        <mxCell id="309" value="" style="rounded=0;whiteSpace=wrap;html=1;fillColor=#cce5ff;container=0;strokeColor=none;fontStyle=1;fontSize=17;fontFamily=Garamond;" parent="301" vertex="1">
          <mxGeometry x="78" width="16" height="30" as="geometry" />
        </mxCell>
        <mxCell id="310" style="edgeStyle=none;jumpSize=2;html=1;entryX=0;entryY=0.5;entryDx=0;entryDy=0;startSize=2;endSize=2;strokeColor=default;dashed=1;dashPattern=1 1;endArrow=none;endFill=0;fontStyle=1;fontSize=17;fontFamily=Garamond;" parent="301" source="307" target="309" edge="1">
          <mxGeometry relative="1" as="geometry" />
        </mxCell>
        <mxCell id="311" value="..." style="edgeLabel;html=1;align=center;verticalAlign=middle;resizable=0;points=[];fontStyle=1;fontFamily=Garamond;fontSize=17;" parent="310" vertex="1" connectable="0">
          <mxGeometry x="-0.1818" y="2" relative="1" as="geometry">
            <mxPoint as="offset" />
          </mxGeometry>
        </mxCell>
        <mxCell id="312" value="" style="rounded=0;whiteSpace=wrap;html=1;fillColor=#cce5ff;container=0;strokeColor=none;fontStyle=1;fontSize=17;fontFamily=Garamond;" parent="301" vertex="1">
          <mxGeometry x="100" width="20" height="30" as="geometry" />
        </mxCell>
        <mxCell id="313" style="edgeStyle=none;jumpSize=2;html=1;entryX=0;entryY=0.5;entryDx=0;entryDy=0;strokeColor=default;endArrow=classicThin;endFill=1;startSize=2;endSize=2;fontStyle=1;fontSize=17;fontFamily=Garamond;" parent="301" source="309" target="312" edge="1">
          <mxGeometry relative="1" as="geometry" />
        </mxCell>
        <mxCell id="314" value="" style="rounded=0;whiteSpace=wrap;html=1;fillColor=#dae8fc;container=0;strokeColor=#000000;fontStyle=1;fontSize=17;fontFamily=Garamond;" parent="301" vertex="1">
          <mxGeometry x="125" width="40" height="30" as="geometry" />
        </mxCell>
        <mxCell id="315" style="edgeStyle=none;jumpSize=2;html=1;entryX=0;entryY=0.5;entryDx=0;entryDy=0;strokeColor=default;endArrow=classicThin;endFill=1;startSize=2;endSize=2;fontStyle=1;fontSize=17;fontFamily=Garamond;" parent="301" source="312" target="314" edge="1">
          <mxGeometry relative="1" as="geometry" />
        </mxCell>
        <mxCell id="332" value="" style="rounded=0;whiteSpace=wrap;html=1;fillColor=#cce5ff;container=0;strokeColor=none;fontStyle=1;fontSize=17;fontFamily=Garamond;" parent="301" vertex="1">
          <mxGeometry x="100" width="20" height="30" as="geometry" />
        </mxCell>
        <mxCell id="333" value="" style="rounded=0;whiteSpace=wrap;html=1;fillColor=#cce5ff;container=0;strokeColor=none;fontStyle=1;fontSize=17;fontFamily=Garamond;" parent="301" vertex="1">
          <mxGeometry x="78" width="16" height="30" as="geometry" />
        </mxCell>
        <mxCell id="334" value="" style="rounded=0;whiteSpace=wrap;html=1;fillColor=#dae8fc;container=0;strokeColor=#000000;fontStyle=1;fontSize=17;fontFamily=Garamond;" parent="301" vertex="1">
          <mxGeometry x="100" width="20" height="30" as="geometry" />
        </mxCell>
        <mxCell id="335" value="" style="rounded=0;whiteSpace=wrap;html=1;fillColor=#dae8fc;container=0;strokeColor=#000000;fontStyle=1;fontSize=17;fontFamily=Garamond;" parent="301" vertex="1">
          <mxGeometry x="78" width="16" height="30" as="geometry" />
        </mxCell>
        <mxCell id="336" value="" style="rounded=0;whiteSpace=wrap;html=1;fillColor=#dae8fc;container=0;strokeColor=#000000;fontStyle=1;fontSize=17;fontFamily=Garamond;" parent="301" vertex="1">
          <mxGeometry width="6" height="30" as="geometry" />
        </mxCell>
        <mxCell id="337" value="" style="rounded=0;whiteSpace=wrap;html=1;fillColor=#dae8fc;container=0;strokeColor=#000000;fontStyle=1;fontSize=17;fontFamily=Garamond;" parent="301" vertex="1">
          <mxGeometry x="10" width="10" height="30" as="geometry" />
        </mxCell>
        <mxCell id="316" value="" style="group;fontStyle=1;fontSize=17;fontFamily=Garamond;" parent="282" vertex="1" connectable="0">
          <mxGeometry x="140" y="50" width="170" height="30" as="geometry" />
        </mxCell>
        <mxCell id="317" value="" style="rounded=0;whiteSpace=wrap;html=1;fillColor=#cce5ff;container=0;strokeColor=none;fontStyle=1;fontSize=17;fontFamily=Garamond;" parent="316" vertex="1">
          <mxGeometry x="10" width="10" height="30" as="geometry" />
        </mxCell>
        <mxCell id="318" value="" style="rounded=0;whiteSpace=wrap;html=1;fillColor=#cce5ff;container=0;strokeColor=none;fontStyle=1;fontSize=17;fontFamily=Garamond;" parent="316" vertex="1">
          <mxGeometry x="25" width="10" height="30" as="geometry" />
        </mxCell>
        <mxCell id="319" style="edgeStyle=none;jumpSize=2;html=1;entryX=0;entryY=0.5;entryDx=0;entryDy=0;strokeColor=default;endArrow=classicThin;endFill=1;startSize=2;endSize=2;fontStyle=1;fontSize=17;fontFamily=Garamond;" parent="316" source="317" target="318" edge="1">
          <mxGeometry relative="1" as="geometry" />
        </mxCell>
        <mxCell id="320" style="edgeStyle=none;jumpSize=2;html=1;entryX=0;entryY=0.5;entryDx=0;entryDy=0;strokeColor=default;endArrow=classicThin;endFill=1;startSize=2;endSize=2;fontStyle=1;fontSize=17;fontFamily=Garamond;" parent="316" source="321" target="317" edge="1">
          <mxGeometry relative="1" as="geometry" />
        </mxCell>
        <mxCell id="321" value="" style="rounded=0;whiteSpace=wrap;html=1;fillColor=#cce5ff;container=0;strokeColor=none;fontStyle=1;fontSize=17;fontFamily=Garamond;" parent="316" vertex="1">
          <mxGeometry width="6" height="30" as="geometry" />
        </mxCell>
        <mxCell id="322" value="" style="rounded=0;whiteSpace=wrap;html=1;fillColor=#cce5ff;container=0;strokeColor=none;fontStyle=1;fontSize=17;fontFamily=Garamond;" parent="316" vertex="1">
          <mxGeometry x="40" width="16" height="30" as="geometry" />
        </mxCell>
        <mxCell id="323" style="edgeStyle=none;jumpSize=2;html=1;entryX=0;entryY=0.5;entryDx=0;entryDy=0;strokeColor=default;endArrow=classicThin;endFill=1;startSize=2;endSize=2;fontStyle=1;fontSize=17;fontFamily=Garamond;" parent="316" source="318" target="322" edge="1">
          <mxGeometry relative="1" as="geometry" />
        </mxCell>
        <mxCell id="324" value="" style="rounded=0;whiteSpace=wrap;html=1;fillColor=#cce5ff;container=0;strokeColor=none;fontStyle=1;fontSize=17;fontFamily=Garamond;" parent="316" vertex="1">
          <mxGeometry x="78" width="16" height="30" as="geometry" />
        </mxCell>
        <mxCell id="325" style="edgeStyle=none;jumpSize=2;html=1;entryX=0;entryY=0.5;entryDx=0;entryDy=0;startSize=2;endSize=2;strokeColor=default;dashed=1;dashPattern=1 1;endArrow=none;endFill=0;fontStyle=1;fontSize=17;fontFamily=Garamond;" parent="316" source="322" target="324" edge="1">
          <mxGeometry relative="1" as="geometry" />
        </mxCell>
        <mxCell id="326" value="..." style="edgeLabel;html=1;align=center;verticalAlign=middle;resizable=0;points=[];fontStyle=1;fontFamily=Garamond;fontSize=17;" parent="325" vertex="1" connectable="0">
          <mxGeometry x="0.0909" y="1" relative="1" as="geometry">
            <mxPoint as="offset" />
          </mxGeometry>
        </mxCell>
        <mxCell id="327" value="" style="rounded=0;whiteSpace=wrap;html=1;fillColor=#cce5ff;container=0;strokeColor=none;fontStyle=1;fontSize=17;fontFamily=Garamond;" parent="316" vertex="1">
          <mxGeometry x="100" width="20" height="30" as="geometry" />
        </mxCell>
        <mxCell id="328" style="edgeStyle=none;jumpSize=2;html=1;entryX=0;entryY=0.5;entryDx=0;entryDy=0;strokeColor=default;endArrow=classicThin;endFill=1;startSize=2;endSize=2;fontStyle=1;fontSize=17;fontFamily=Garamond;" parent="316" source="324" target="327" edge="1">
          <mxGeometry relative="1" as="geometry" />
        </mxCell>
        <mxCell id="329" value="" style="rounded=0;whiteSpace=wrap;html=1;fillColor=#cce5ff;container=0;strokeColor=none;fontStyle=1;fontSize=17;fontFamily=Garamond;" parent="316" vertex="1">
          <mxGeometry x="126" width="40" height="30" as="geometry" />
        </mxCell>
        <mxCell id="330" style="edgeStyle=none;jumpSize=2;html=1;entryX=0;entryY=0.5;entryDx=0;entryDy=0;strokeColor=default;endArrow=classicThin;endFill=1;startSize=2;endSize=2;fontStyle=1;fontSize=17;fontFamily=Garamond;" parent="316" source="327" target="329" edge="1">
          <mxGeometry relative="1" as="geometry" />
        </mxCell>
        <mxCell id="331" style="edgeStyle=none;jumpSize=2;html=1;entryX=0;entryY=0.5;entryDx=0;entryDy=0;strokeColor=default;endArrow=classicThin;endFill=1;startSize=2;endSize=2;fontStyle=1;fontSize=17;fontFamily=Garamond;" parent="282" source="283" target="321" edge="1">
          <mxGeometry relative="1" as="geometry" />
        </mxCell>
        <mxCell id="343" value="&lt;b style=&quot;font-size: 17px;&quot;&gt;Linked List with memory address&amp;nbsp;&lt;/b&gt;" style="text;html=1;strokeColor=none;fillColor=none;align=center;verticalAlign=middle;whiteSpace=wrap;rounded=0;fontFamily=Garamond;fontSize=17;" parent="282" vertex="1">
          <mxGeometry x="324" y="50" width="236" height="30" as="geometry" />
        </mxCell>
        <mxCell id="54" value="" style="group;fontStyle=1;fontSize=17;fontFamily=Garamond;" parent="20" vertex="1" connectable="0">
          <mxGeometry x="140" y="50" width="170" height="30" as="geometry" />
        </mxCell>
        <mxCell id="55" value="" style="rounded=0;whiteSpace=wrap;html=1;fillColor=#dae8fc;container=0;strokeColor=#000000;fontStyle=1;fontSize=17;fontFamily=Garamond;" parent="54" vertex="1">
          <mxGeometry x="10" width="10" height="30" as="geometry" />
        </mxCell>
        <mxCell id="56" value="" style="rounded=0;whiteSpace=wrap;html=1;fillColor=#dae8fc;container=0;strokeColor=#000000;fontStyle=1;fontSize=17;fontFamily=Garamond;" parent="54" vertex="1">
          <mxGeometry x="25" width="10" height="30" as="geometry" />
        </mxCell>
        <mxCell id="57" style="edgeStyle=none;jumpSize=2;html=1;entryX=0;entryY=0.5;entryDx=0;entryDy=0;strokeColor=default;endArrow=classicThin;endFill=1;startSize=2;endSize=2;fontStyle=1;fontSize=17;fontFamily=Garamond;" parent="54" source="55" target="56" edge="1">
          <mxGeometry relative="1" as="geometry" />
        </mxCell>
        <mxCell id="58" style="edgeStyle=none;jumpSize=2;html=1;entryX=0;entryY=0.5;entryDx=0;entryDy=0;strokeColor=default;endArrow=classicThin;endFill=1;startSize=2;endSize=2;fontStyle=1;fontSize=17;fontFamily=Garamond;" parent="54" source="59" target="55" edge="1">
          <mxGeometry relative="1" as="geometry" />
        </mxCell>
        <mxCell id="59" value="" style="rounded=0;whiteSpace=wrap;html=1;fillColor=#dae8fc;container=0;strokeColor=#000000;fontStyle=1;fontSize=17;fontFamily=Garamond;" parent="54" vertex="1">
          <mxGeometry width="6" height="30" as="geometry" />
        </mxCell>
        <mxCell id="60" value="" style="rounded=0;whiteSpace=wrap;html=1;fillColor=#dae8fc;container=0;strokeColor=#000000;fontStyle=1;fontSize=17;fontFamily=Garamond;" parent="54" vertex="1">
          <mxGeometry x="40" width="16" height="30" as="geometry" />
        </mxCell>
        <mxCell id="61" style="edgeStyle=none;jumpSize=2;html=1;entryX=0;entryY=0.5;entryDx=0;entryDy=0;strokeColor=default;endArrow=classicThin;endFill=1;startSize=2;endSize=2;fontStyle=1;fontSize=17;fontFamily=Garamond;" parent="54" source="56" target="60" edge="1">
          <mxGeometry relative="1" as="geometry" />
        </mxCell>
        <mxCell id="62" value="" style="rounded=0;whiteSpace=wrap;html=1;fillColor=#dae8fc;container=0;strokeColor=#000000;fontStyle=1;fontSize=17;fontFamily=Garamond;" parent="54" vertex="1">
          <mxGeometry x="78" width="16" height="30" as="geometry" />
        </mxCell>
        <mxCell id="63" style="edgeStyle=none;jumpSize=2;html=1;entryX=0;entryY=0.5;entryDx=0;entryDy=0;startSize=2;endSize=2;strokeColor=default;dashed=1;dashPattern=1 1;endArrow=none;endFill=0;fontStyle=1;fontSize=17;fontFamily=Garamond;" parent="54" source="60" target="62" edge="1">
          <mxGeometry relative="1" as="geometry" />
        </mxCell>
        <mxCell id="64" value="..." style="edgeLabel;html=1;align=center;verticalAlign=middle;resizable=0;points=[];fontStyle=1;fontFamily=Garamond;fontSize=17;" parent="63" vertex="1" connectable="0">
          <mxGeometry x="0.0909" y="1" relative="1" as="geometry">
            <mxPoint as="offset" />
          </mxGeometry>
        </mxCell>
        <mxCell id="65" value="" style="rounded=0;whiteSpace=wrap;html=1;fillColor=#dae8fc;container=0;strokeColor=#000000;fontStyle=1;fontSize=17;fontFamily=Garamond;" parent="54" vertex="1">
          <mxGeometry x="100" width="20" height="30" as="geometry" />
        </mxCell>
        <mxCell id="66" style="edgeStyle=none;jumpSize=2;html=1;entryX=0;entryY=0.5;entryDx=0;entryDy=0;strokeColor=default;endArrow=classicThin;endFill=1;startSize=2;endSize=2;fontStyle=1;fontSize=17;fontFamily=Garamond;" parent="54" source="62" target="65" edge="1">
          <mxGeometry relative="1" as="geometry" />
        </mxCell>
        <mxCell id="67" value="" style="rounded=0;whiteSpace=wrap;html=1;fillColor=#dae8fc;container=0;strokeColor=#000000;fontStyle=1;fontSize=17;fontFamily=Garamond;" parent="54" vertex="1">
          <mxGeometry x="126" width="40" height="30" as="geometry" />
        </mxCell>
        <mxCell id="68" style="edgeStyle=none;jumpSize=2;html=1;entryX=0;entryY=0.5;entryDx=0;entryDy=0;strokeColor=default;endArrow=classicThin;endFill=1;startSize=2;endSize=2;fontStyle=1;fontSize=17;fontFamily=Garamond;" parent="54" source="65" target="67" edge="1">
          <mxGeometry relative="1" as="geometry" />
        </mxCell>
        <mxCell id="69" style="edgeStyle=none;jumpSize=2;html=1;entryX=0;entryY=0.5;entryDx=0;entryDy=0;strokeColor=default;endArrow=classicThin;endFill=1;startSize=2;endSize=2;fontStyle=1;fontSize=17;fontFamily=Garamond;" parent="20" source="21" target="59" edge="1">
          <mxGeometry relative="1" as="geometry" />
        </mxCell>
        <mxCell id="70" value="" style="group;fontStyle=1;fontSize=17;fontFamily=Garamond;" parent="1" vertex="1" connectable="0">
          <mxGeometry x="40" y="330" width="560" height="85" as="geometry" />
        </mxCell>
        <mxCell id="71" value="S1" style="text;html=1;strokeColor=none;fillColor=none;align=center;verticalAlign=middle;whiteSpace=wrap;rounded=0;fontStyle=1;fontSize=17;fontFamily=Garamond;" parent="70" vertex="1">
          <mxGeometry width="30" height="30" as="geometry" />
        </mxCell>
        <mxCell id="72" value="" style="rounded=0;whiteSpace=wrap;html=1;fillColor=#cdeb8b;strokeColor=none;fontStyle=1;fontSize=17;fontFamily=Garamond;" parent="70" vertex="1">
          <mxGeometry x="70" width="10" height="30" as="geometry" />
        </mxCell>
        <mxCell id="73" style="edgeStyle=none;jumpSize=2;html=1;entryX=0;entryY=0.5;entryDx=0;entryDy=0;startSize=2;endSize=2;fontStyle=1;fontSize=17;fontFamily=Garamond;" parent="70" source="71" target="72" edge="1">
          <mxGeometry relative="1" as="geometry" />
        </mxCell>
        <mxCell id="74" value="Shared Pool" style="text;html=1;align=center;verticalAlign=middle;resizable=0;points=[];autosize=1;strokeColor=none;fillColor=none;fontStyle=1;fontSize=17;fontFamily=Garamond;" parent="70" vertex="1">
          <mxGeometry x="20" y="50" width="120" height="30" as="geometry" />
        </mxCell>
        <mxCell id="75" value="" style="group;fontStyle=1;fontSize=17;fontFamily=Garamond;" parent="70" vertex="1" connectable="0">
          <mxGeometry x="140" y="50" width="170" height="30" as="geometry" />
        </mxCell>
        <mxCell id="76" value="" style="rounded=0;whiteSpace=wrap;html=1;fillColor=#dae8fc;container=0;strokeColor=#000000;fontStyle=1;fontSize=17;fontFamily=Garamond;" parent="75" vertex="1">
          <mxGeometry x="10" width="10" height="30" as="geometry" />
        </mxCell>
        <mxCell id="77" value="" style="rounded=0;whiteSpace=wrap;html=1;fillColor=#dae8fc;container=0;strokeColor=#000000;fontStyle=1;fontSize=17;fontFamily=Garamond;" parent="75" vertex="1">
          <mxGeometry x="25" width="10" height="30" as="geometry" />
        </mxCell>
        <mxCell id="78" style="edgeStyle=none;jumpSize=2;html=1;entryX=0;entryY=0.5;entryDx=0;entryDy=0;strokeColor=default;endArrow=classicThin;endFill=1;startSize=2;endSize=2;fontStyle=1;fontSize=17;fontFamily=Garamond;" parent="75" source="76" target="77" edge="1">
          <mxGeometry relative="1" as="geometry" />
        </mxCell>
        <mxCell id="79" style="edgeStyle=none;jumpSize=2;html=1;entryX=0;entryY=0.5;entryDx=0;entryDy=0;strokeColor=default;endArrow=classicThin;endFill=1;startSize=2;endSize=2;fontStyle=1;fontSize=17;fontFamily=Garamond;" parent="75" source="80" target="76" edge="1">
          <mxGeometry relative="1" as="geometry" />
        </mxCell>
        <mxCell id="80" value="" style="rounded=0;whiteSpace=wrap;html=1;fillColor=#dae8fc;container=0;strokeColor=#000000;fontStyle=1;fontSize=17;fontFamily=Garamond;" parent="75" vertex="1">
          <mxGeometry width="6" height="30" as="geometry" />
        </mxCell>
        <mxCell id="81" value="" style="rounded=0;whiteSpace=wrap;html=1;fillColor=#dae8fc;container=0;strokeColor=#000000;fontStyle=1;fontSize=17;fontFamily=Garamond;" parent="75" vertex="1">
          <mxGeometry x="40" width="16" height="30" as="geometry" />
        </mxCell>
        <mxCell id="82" style="edgeStyle=none;jumpSize=2;html=1;entryX=0;entryY=0.5;entryDx=0;entryDy=0;strokeColor=default;endArrow=classicThin;endFill=1;startSize=2;endSize=2;fontStyle=1;fontSize=17;fontFamily=Garamond;" parent="75" source="77" target="81" edge="1">
          <mxGeometry relative="1" as="geometry" />
        </mxCell>
        <mxCell id="83" value="" style="rounded=0;whiteSpace=wrap;html=1;fillColor=#dae8fc;container=0;strokeColor=#000000;fontStyle=1;fontSize=17;fontFamily=Garamond;" parent="75" vertex="1">
          <mxGeometry x="78" width="16" height="30" as="geometry" />
        </mxCell>
        <mxCell id="84" style="edgeStyle=none;jumpSize=2;html=1;entryX=0;entryY=0.5;entryDx=0;entryDy=0;startSize=2;endSize=2;strokeColor=default;dashed=1;dashPattern=1 1;endArrow=none;endFill=0;fontStyle=1;fontSize=17;fontFamily=Garamond;" parent="75" source="81" target="83" edge="1">
          <mxGeometry relative="1" as="geometry" />
        </mxCell>
        <mxCell id="85" value="..." style="edgeLabel;html=1;align=center;verticalAlign=middle;resizable=0;points=[];fontStyle=1;fontFamily=Garamond;fontSize=17;" parent="84" vertex="1" connectable="0">
          <mxGeometry x="-0.29" relative="1" as="geometry">
            <mxPoint as="offset" />
          </mxGeometry>
        </mxCell>
        <mxCell id="86" value="" style="rounded=0;whiteSpace=wrap;html=1;fillColor=#dae8fc;container=0;strokeColor=#000000;fontStyle=1;fontSize=17;fontFamily=Garamond;" parent="75" vertex="1">
          <mxGeometry x="100" width="20" height="30" as="geometry" />
        </mxCell>
        <mxCell id="87" style="edgeStyle=none;jumpSize=2;html=1;entryX=0;entryY=0.5;entryDx=0;entryDy=0;strokeColor=default;endArrow=classicThin;endFill=1;startSize=2;endSize=2;fontStyle=1;fontSize=17;fontFamily=Garamond;" parent="75" source="83" target="86" edge="1">
          <mxGeometry relative="1" as="geometry" />
        </mxCell>
        <mxCell id="88" value="" style="rounded=0;whiteSpace=wrap;html=1;fillColor=#dae8fc;container=0;strokeColor=#000000;fontStyle=1;fontSize=17;fontFamily=Garamond;" parent="75" vertex="1">
          <mxGeometry x="126" width="40" height="30" as="geometry" />
        </mxCell>
        <mxCell id="89" style="edgeStyle=none;jumpSize=2;html=1;entryX=0;entryY=0.5;entryDx=0;entryDy=0;strokeColor=default;endArrow=classicThin;endFill=1;startSize=2;endSize=2;fontStyle=1;fontSize=17;fontFamily=Garamond;" parent="75" source="86" target="88" edge="1">
          <mxGeometry relative="1" as="geometry" />
        </mxCell>
        <mxCell id="90" style="edgeStyle=none;jumpSize=2;html=1;entryX=0;entryY=0.5;entryDx=0;entryDy=0;strokeColor=default;endArrow=classicThin;endFill=1;startSize=2;endSize=2;fontStyle=1;fontSize=17;fontFamily=Garamond;" parent="70" source="74" target="80" edge="1">
          <mxGeometry relative="1" as="geometry" />
        </mxCell>
        <mxCell id="91" value="" style="group;fontStyle=1;fontSize=17;fontFamily=Garamond;" parent="70" vertex="1" connectable="0">
          <mxGeometry x="120" width="80" height="30" as="geometry" />
        </mxCell>
        <mxCell id="92" value="" style="rounded=0;whiteSpace=wrap;html=1;fillColor=#e1d5e7;strokeColor=none;fontStyle=1;fontSize=17;fontFamily=Garamond;" parent="91" vertex="1">
          <mxGeometry x="40" width="10" height="30" as="geometry" />
        </mxCell>
        <mxCell id="93" style="edgeStyle=none;jumpSize=2;html=1;entryX=0;entryY=0.5;entryDx=0;entryDy=0;startSize=2;endSize=2;fontStyle=1;fontSize=17;fontFamily=Garamond;" parent="91" source="94" target="92" edge="1">
          <mxGeometry relative="1" as="geometry" />
        </mxCell>
        <mxCell id="94" value="S2" style="text;html=1;strokeColor=none;fillColor=none;align=center;verticalAlign=middle;whiteSpace=wrap;rounded=0;fontStyle=1;fontSize=17;fontFamily=Garamond;" parent="91" vertex="1">
          <mxGeometry width="30" height="30" as="geometry" />
        </mxCell>
        <mxCell id="95" value="" style="group;fontStyle=1;fontSize=17;fontFamily=Garamond;" parent="70" vertex="1" connectable="0">
          <mxGeometry x="360" width="80" height="30" as="geometry" />
        </mxCell>
        <mxCell id="96" value="" style="rounded=0;whiteSpace=wrap;html=1;fillColor=#ffcccc;strokeColor=none;fontStyle=1;fontSize=17;fontFamily=Garamond;" parent="95" vertex="1">
          <mxGeometry x="70" width="10" height="30" as="geometry" />
        </mxCell>
        <mxCell id="97" style="edgeStyle=none;jumpSize=2;html=1;entryX=0;entryY=0.5;entryDx=0;entryDy=0;startSize=2;endSize=2;fontStyle=1;fontSize=17;fontFamily=Garamond;" parent="95" source="98" target="96" edge="1">
          <mxGeometry relative="1" as="geometry" />
        </mxCell>
        <mxCell id="98" value="S3" style="text;html=1;strokeColor=none;fillColor=none;align=center;verticalAlign=middle;whiteSpace=wrap;rounded=0;fontStyle=1;fontSize=17;fontFamily=Garamond;" parent="95" vertex="1">
          <mxGeometry width="30" height="30" as="geometry" />
        </mxCell>
        <mxCell id="99" value="" style="group;fontStyle=1;fontSize=17;fontFamily=Garamond;" parent="70" vertex="1" connectable="0">
          <mxGeometry x="480" width="80" height="30" as="geometry" />
        </mxCell>
        <mxCell id="100" value="" style="rounded=0;whiteSpace=wrap;html=1;fillColor=#ffcc99;strokeColor=none;fontStyle=1;fontSize=17;fontFamily=Garamond;" parent="99" vertex="1">
          <mxGeometry x="70" width="10" height="30" as="geometry" />
        </mxCell>
        <mxCell id="101" style="edgeStyle=none;jumpSize=2;html=1;entryX=0;entryY=0.5;entryDx=0;entryDy=0;startSize=2;endSize=2;fontStyle=1;fontSize=17;fontFamily=Garamond;" parent="99" source="102" target="100" edge="1">
          <mxGeometry relative="1" as="geometry" />
        </mxCell>
        <mxCell id="102" value="S4" style="text;html=1;strokeColor=none;fillColor=none;align=center;verticalAlign=middle;whiteSpace=wrap;rounded=0;fontStyle=1;fontSize=17;fontFamily=Garamond;" parent="99" vertex="1">
          <mxGeometry width="30" height="30" as="geometry" />
        </mxCell>
        <mxCell id="103" value="" style="group;fontStyle=1;fontSize=17;fontFamily=Garamond;" parent="70" vertex="1" connectable="0">
          <mxGeometry x="180" width="170" height="30" as="geometry" />
        </mxCell>
        <mxCell id="104" value="" style="rounded=0;whiteSpace=wrap;html=1;fillColor=#dae8fc;container=0;strokeColor=#000000;fontStyle=1;fontSize=17;fontFamily=Garamond;" parent="103" vertex="1">
          <mxGeometry x="10" width="10" height="30" as="geometry" />
        </mxCell>
        <mxCell id="105" value="" style="rounded=0;whiteSpace=wrap;html=1;fillColor=#dae8fc;container=0;strokeColor=#000000;fontStyle=1;fontSize=17;fontFamily=Garamond;" parent="103" vertex="1">
          <mxGeometry x="25" width="10" height="30" as="geometry" />
        </mxCell>
        <mxCell id="106" style="edgeStyle=none;jumpSize=2;html=1;entryX=0;entryY=0.5;entryDx=0;entryDy=0;strokeColor=default;endArrow=classicThin;endFill=1;startSize=2;endSize=2;fontStyle=1;fontSize=17;fontFamily=Garamond;" parent="103" source="104" target="105" edge="1">
          <mxGeometry relative="1" as="geometry" />
        </mxCell>
        <mxCell id="107" style="edgeStyle=none;jumpSize=2;html=1;entryX=0;entryY=0.5;entryDx=0;entryDy=0;strokeColor=default;endArrow=classicThin;endFill=1;startSize=2;endSize=2;fontStyle=1;fontSize=17;fontFamily=Garamond;" parent="103" source="108" target="104" edge="1">
          <mxGeometry relative="1" as="geometry" />
        </mxCell>
        <mxCell id="108" value="" style="rounded=0;whiteSpace=wrap;html=1;fillColor=#1ba1e2;container=0;fontColor=#ffffff;strokeColor=#006EAF;fontStyle=1;fontSize=17;fontFamily=Garamond;" parent="103" vertex="1">
          <mxGeometry width="6" height="30" as="geometry" />
        </mxCell>
        <mxCell id="109" value="" style="rounded=0;whiteSpace=wrap;html=1;fillColor=#dae8fc;container=0;strokeColor=#000000;fontStyle=1;fontSize=17;fontFamily=Garamond;" parent="103" vertex="1">
          <mxGeometry x="40" width="16" height="30" as="geometry" />
        </mxCell>
        <mxCell id="110" style="edgeStyle=none;jumpSize=2;html=1;entryX=0;entryY=0.5;entryDx=0;entryDy=0;strokeColor=default;endArrow=classicThin;endFill=1;startSize=2;endSize=2;fontStyle=1;fontSize=17;fontFamily=Garamond;" parent="103" source="105" target="109" edge="1">
          <mxGeometry relative="1" as="geometry" />
        </mxCell>
        <mxCell id="111" value="" style="rounded=0;whiteSpace=wrap;html=1;fillColor=#dae8fc;container=0;strokeColor=#000000;fontStyle=1;fontSize=17;fontFamily=Garamond;" parent="103" vertex="1">
          <mxGeometry x="78" width="16" height="30" as="geometry" />
        </mxCell>
        <mxCell id="112" style="edgeStyle=none;jumpSize=2;html=1;entryX=0;entryY=0.5;entryDx=0;entryDy=0;startSize=2;endSize=2;strokeColor=default;dashed=1;dashPattern=1 1;endArrow=none;endFill=0;fontStyle=1;fontSize=17;fontFamily=Garamond;" parent="103" source="109" target="111" edge="1">
          <mxGeometry relative="1" as="geometry" />
        </mxCell>
        <mxCell id="113" value="..." style="edgeLabel;html=1;align=center;verticalAlign=middle;resizable=0;points=[];fontStyle=1;fontFamily=Garamond;fontSize=17;" parent="112" vertex="1" connectable="0">
          <mxGeometry x="-0.0736" y="-1" relative="1" as="geometry">
            <mxPoint as="offset" />
          </mxGeometry>
        </mxCell>
        <mxCell id="114" value="" style="rounded=0;whiteSpace=wrap;html=1;fillColor=#dae8fc;container=0;strokeColor=#000000;fontStyle=1;fontSize=17;fontFamily=Garamond;" parent="103" vertex="1">
          <mxGeometry x="100" width="20" height="30" as="geometry" />
        </mxCell>
        <mxCell id="115" style="edgeStyle=none;jumpSize=2;html=1;entryX=0;entryY=0.5;entryDx=0;entryDy=0;strokeColor=default;endArrow=classicThin;endFill=1;startSize=2;endSize=2;fontStyle=1;fontSize=17;fontFamily=Garamond;" parent="103" source="111" target="114" edge="1">
          <mxGeometry relative="1" as="geometry" />
        </mxCell>
        <mxCell id="116" value="" style="rounded=0;whiteSpace=wrap;html=1;fillColor=#dae8fc;container=0;strokeColor=#000000;fontStyle=1;fontSize=17;fontFamily=Garamond;" parent="103" vertex="1">
          <mxGeometry x="126" width="40" height="30" as="geometry" />
        </mxCell>
        <mxCell id="117" style="edgeStyle=none;jumpSize=2;html=1;entryX=0;entryY=0.5;entryDx=0;entryDy=0;strokeColor=default;endArrow=classicThin;endFill=1;startSize=2;endSize=2;fontStyle=1;fontSize=17;fontFamily=Garamond;" parent="103" source="114" target="116" edge="1">
          <mxGeometry relative="1" as="geometry" />
        </mxCell>
        <mxCell id="255" value="" style="rounded=0;whiteSpace=wrap;html=1;fillColor=#dae8fc;container=0;strokeColor=#000000;fontStyle=1;fontSize=17;fontFamily=Garamond;" parent="103" vertex="1">
          <mxGeometry width="6" height="30" as="geometry" />
        </mxCell>
        <mxCell id="118" style="edgeStyle=none;jumpSize=2;html=1;entryX=0;entryY=0.5;entryDx=0;entryDy=0;strokeColor=default;endArrow=classicThin;endFill=1;startSize=2;endSize=2;fontStyle=1;fontSize=17;fontFamily=Garamond;" parent="70" source="92" target="108" edge="1">
          <mxGeometry relative="1" as="geometry" />
        </mxCell>
        <mxCell id="119" value="" style="group;fontStyle=1;fontSize=17;fontFamily=Garamond;" parent="1" vertex="1" connectable="0">
          <mxGeometry x="40" y="450" width="560" height="85" as="geometry" />
        </mxCell>
        <mxCell id="120" value="" style="group;fontStyle=1;fontSize=17;fontFamily=Garamond;" parent="119" vertex="1" connectable="0">
          <mxGeometry width="130" height="30" as="geometry" />
        </mxCell>
        <mxCell id="121" style="edgeStyle=none;jumpSize=2;html=1;entryX=0;entryY=0.5;entryDx=0;entryDy=0;startSize=2;endSize=2;fontStyle=1;fontSize=17;fontFamily=Garamond;" parent="120" source="122" target="123" edge="1">
          <mxGeometry relative="1" as="geometry" />
        </mxCell>
        <mxCell id="122" value="S1" style="text;html=1;strokeColor=none;fillColor=none;align=center;verticalAlign=middle;whiteSpace=wrap;rounded=0;fontStyle=1;fontSize=17;fontFamily=Garamond;" parent="120" vertex="1">
          <mxGeometry width="30" height="30" as="geometry" />
        </mxCell>
        <mxCell id="123" value="" style="rounded=0;whiteSpace=wrap;html=1;fillColor=#cdeb8b;strokeColor=none;fontStyle=1;fontSize=17;fontFamily=Garamond;" parent="120" vertex="1">
          <mxGeometry x="70" width="10" height="30" as="geometry" />
        </mxCell>
        <mxCell id="124" value="Shared Pool" style="text;html=1;align=center;verticalAlign=middle;resizable=0;points=[];autosize=1;strokeColor=none;fillColor=none;fontStyle=1;fontSize=17;fontFamily=Garamond;" parent="119" vertex="1">
          <mxGeometry x="20" y="50" width="120" height="30" as="geometry" />
        </mxCell>
        <mxCell id="125" value="" style="group;fontStyle=1;fontSize=17;fontFamily=Garamond;" parent="119" vertex="1" connectable="0">
          <mxGeometry x="140" y="50" width="170" height="30" as="geometry" />
        </mxCell>
        <mxCell id="126" value="" style="rounded=0;whiteSpace=wrap;html=1;fillColor=#dae8fc;container=0;strokeColor=#000000;fontStyle=1;fontSize=17;fontFamily=Garamond;" parent="125" vertex="1">
          <mxGeometry x="10" width="10" height="30" as="geometry" />
        </mxCell>
        <mxCell id="127" value="" style="rounded=0;whiteSpace=wrap;html=1;fillColor=#e3c800;container=0;fontColor=#000000;strokeColor=#B09500;fontStyle=1;fontSize=17;fontFamily=Garamond;" parent="125" vertex="1">
          <mxGeometry x="25" width="10" height="30" as="geometry" />
        </mxCell>
        <mxCell id="128" style="edgeStyle=none;jumpSize=2;html=1;entryX=0;entryY=0.5;entryDx=0;entryDy=0;strokeColor=default;endArrow=classicThin;endFill=1;startSize=2;endSize=2;fontStyle=1;fontSize=17;fontFamily=Garamond;" parent="125" source="126" target="127" edge="1">
          <mxGeometry relative="1" as="geometry" />
        </mxCell>
        <mxCell id="129" style="edgeStyle=none;jumpSize=2;html=1;entryX=0;entryY=0.5;entryDx=0;entryDy=0;strokeColor=default;endArrow=classicThin;endFill=1;startSize=2;endSize=2;fontStyle=1;fontSize=17;fontFamily=Garamond;" parent="125" source="130" target="126" edge="1">
          <mxGeometry relative="1" as="geometry" />
        </mxCell>
        <mxCell id="130" value="" style="rounded=0;whiteSpace=wrap;html=1;fillColor=#dae8fc;container=0;strokeColor=#000000;fontStyle=1;fontSize=17;fontFamily=Garamond;" parent="125" vertex="1">
          <mxGeometry width="6" height="30" as="geometry" />
        </mxCell>
        <mxCell id="131" value="" style="rounded=0;whiteSpace=wrap;html=1;fillColor=#e3c800;container=0;fontColor=#000000;strokeColor=#B09500;fontStyle=1;fontSize=17;fontFamily=Garamond;" parent="125" vertex="1">
          <mxGeometry x="40" width="16" height="30" as="geometry" />
        </mxCell>
        <mxCell id="132" style="edgeStyle=none;jumpSize=2;html=1;entryX=0;entryY=0.5;entryDx=0;entryDy=0;strokeColor=default;endArrow=classicThin;endFill=1;startSize=2;endSize=2;fontStyle=1;fontSize=17;fontFamily=Garamond;" parent="125" source="127" target="131" edge="1">
          <mxGeometry relative="1" as="geometry" />
        </mxCell>
        <mxCell id="133" value="" style="rounded=0;whiteSpace=wrap;html=1;fillColor=#e3c800;container=0;fontColor=#000000;strokeColor=#B09500;fontStyle=1;fontSize=17;fontFamily=Garamond;" parent="125" vertex="1">
          <mxGeometry x="78" width="16" height="30" as="geometry" />
        </mxCell>
        <mxCell id="134" style="edgeStyle=none;jumpSize=2;html=1;entryX=0;entryY=0.5;entryDx=0;entryDy=0;startSize=2;endSize=2;strokeColor=default;dashed=1;dashPattern=1 1;endArrow=none;endFill=0;fontStyle=1;fontSize=17;fontFamily=Garamond;" parent="125" source="131" target="133" edge="1">
          <mxGeometry relative="1" as="geometry" />
        </mxCell>
        <mxCell id="135" value="..." style="edgeLabel;html=1;align=center;verticalAlign=middle;resizable=0;points=[];fontStyle=1;fontFamily=Garamond;fontSize=17;" parent="134" vertex="1" connectable="0">
          <mxGeometry x="0.013" relative="1" as="geometry">
            <mxPoint as="offset" />
          </mxGeometry>
        </mxCell>
        <mxCell id="136" value="" style="rounded=0;whiteSpace=wrap;html=1;fillColor=#e3c800;container=0;fontColor=#000000;strokeColor=#B09500;fontStyle=1;fontSize=17;fontFamily=Garamond;" parent="125" vertex="1">
          <mxGeometry x="100" width="20" height="30" as="geometry" />
        </mxCell>
        <mxCell id="137" style="edgeStyle=none;jumpSize=2;html=1;entryX=0;entryY=0.5;entryDx=0;entryDy=0;strokeColor=default;endArrow=classicThin;endFill=1;startSize=2;endSize=2;fontStyle=1;fontSize=17;fontFamily=Garamond;" parent="125" source="133" target="136" edge="1">
          <mxGeometry relative="1" as="geometry" />
        </mxCell>
        <mxCell id="138" value="" style="rounded=0;whiteSpace=wrap;html=1;fillColor=#e3c800;container=0;fontColor=#000000;strokeColor=#B09500;fontStyle=1;fontSize=17;fontFamily=Garamond;" parent="125" vertex="1">
          <mxGeometry x="126" width="40" height="30" as="geometry" />
        </mxCell>
        <mxCell id="139" style="edgeStyle=none;jumpSize=2;html=1;entryX=0;entryY=0.5;entryDx=0;entryDy=0;strokeColor=default;endArrow=classicThin;endFill=1;startSize=2;endSize=2;fontStyle=1;fontSize=17;fontFamily=Garamond;" parent="125" source="136" target="138" edge="1">
          <mxGeometry relative="1" as="geometry" />
        </mxCell>
        <mxCell id="258" value="" style="rounded=0;whiteSpace=wrap;html=1;fillColor=#dae8fc;container=0;strokeColor=#000000;fontStyle=1;fontSize=17;fontFamily=Garamond;" parent="125" vertex="1">
          <mxGeometry x="126" width="40" height="30" as="geometry" />
        </mxCell>
        <mxCell id="259" value="" style="rounded=0;whiteSpace=wrap;html=1;fillColor=#dae8fc;container=0;strokeColor=#000000;fontStyle=1;fontSize=17;fontFamily=Garamond;" parent="125" vertex="1">
          <mxGeometry x="100" width="20" height="30" as="geometry" />
        </mxCell>
        <mxCell id="260" value="" style="rounded=0;whiteSpace=wrap;html=1;fillColor=#dae8fc;container=0;strokeColor=#000000;fontStyle=1;fontSize=17;fontFamily=Garamond;" parent="125" vertex="1">
          <mxGeometry x="78" width="16" height="30" as="geometry" />
        </mxCell>
        <mxCell id="261" value="" style="rounded=0;whiteSpace=wrap;html=1;fillColor=#dae8fc;container=0;strokeColor=#000000;fontStyle=1;fontSize=17;fontFamily=Garamond;" parent="125" vertex="1">
          <mxGeometry x="25" width="10" height="30" as="geometry" />
        </mxCell>
        <mxCell id="262" value="" style="rounded=0;whiteSpace=wrap;html=1;fillColor=#dae8fc;container=0;strokeColor=#000000;fontStyle=1;fontSize=17;fontFamily=Garamond;" parent="125" vertex="1">
          <mxGeometry x="40" width="16" height="30" as="geometry" />
        </mxCell>
        <mxCell id="140" style="edgeStyle=none;jumpSize=2;html=1;entryX=0;entryY=0.5;entryDx=0;entryDy=0;strokeColor=default;endArrow=classicThin;endFill=1;startSize=2;endSize=2;fontStyle=1;fontSize=17;fontFamily=Garamond;" parent="119" source="124" target="130" edge="1">
          <mxGeometry relative="1" as="geometry" />
        </mxCell>
        <mxCell id="141" value="" style="group;fontStyle=1;fontSize=17;fontFamily=Garamond;" parent="119" vertex="1" connectable="0">
          <mxGeometry x="120" width="80" height="30" as="geometry" />
        </mxCell>
        <mxCell id="142" value="" style="rounded=0;whiteSpace=wrap;html=1;fillColor=#e1d5e7;strokeColor=none;fontStyle=1;fontSize=17;fontFamily=Garamond;" parent="141" vertex="1">
          <mxGeometry x="70" width="10" height="30" as="geometry" />
        </mxCell>
        <mxCell id="143" style="edgeStyle=none;jumpSize=2;html=1;entryX=0;entryY=0.5;entryDx=0;entryDy=0;startSize=2;endSize=2;fontStyle=1;fontSize=17;fontFamily=Garamond;" parent="141" source="144" target="142" edge="1">
          <mxGeometry relative="1" as="geometry" />
        </mxCell>
        <mxCell id="144" value="S2" style="text;html=1;strokeColor=none;fillColor=none;align=center;verticalAlign=middle;whiteSpace=wrap;rounded=0;fontStyle=1;fontSize=17;fontFamily=Garamond;" parent="141" vertex="1">
          <mxGeometry width="30" height="30" as="geometry" />
        </mxCell>
        <mxCell id="145" value="" style="group;fontStyle=1;fontSize=17;fontFamily=Garamond;" parent="119" vertex="1" connectable="0">
          <mxGeometry x="240" width="80" height="30" as="geometry" />
        </mxCell>
        <mxCell id="146" value="" style="rounded=0;whiteSpace=wrap;html=1;fillColor=#ffcccc;strokeColor=none;fontStyle=1;fontSize=17;fontFamily=Garamond;" parent="145" vertex="1">
          <mxGeometry x="40" width="10" height="30" as="geometry" />
        </mxCell>
        <mxCell id="147" style="edgeStyle=none;jumpSize=2;html=1;entryX=0;entryY=0.5;entryDx=0;entryDy=0;startSize=2;endSize=2;fontStyle=1;fontSize=17;fontFamily=Garamond;" parent="145" source="148" target="146" edge="1">
          <mxGeometry relative="1" as="geometry" />
        </mxCell>
        <mxCell id="148" value="S3" style="text;html=1;strokeColor=none;fillColor=none;align=center;verticalAlign=middle;whiteSpace=wrap;rounded=0;fontStyle=1;fontSize=17;fontFamily=Garamond;" parent="145" vertex="1">
          <mxGeometry width="30" height="30" as="geometry" />
        </mxCell>
        <mxCell id="149" value="" style="group;fontStyle=1;fontSize=17;fontFamily=Garamond;" parent="119" vertex="1" connectable="0">
          <mxGeometry x="480" width="80" height="30" as="geometry" />
        </mxCell>
        <mxCell id="150" value="" style="rounded=0;whiteSpace=wrap;html=1;fillColor=#ffcc99;strokeColor=none;fontStyle=1;fontSize=17;fontFamily=Garamond;" parent="149" vertex="1">
          <mxGeometry x="70" width="10" height="30" as="geometry" />
        </mxCell>
        <mxCell id="151" style="edgeStyle=none;jumpSize=2;html=1;entryX=0;entryY=0.5;entryDx=0;entryDy=0;startSize=2;endSize=2;fontStyle=1;fontSize=17;fontFamily=Garamond;" parent="149" source="152" target="150" edge="1">
          <mxGeometry relative="1" as="geometry" />
        </mxCell>
        <mxCell id="152" value="S4" style="text;html=1;strokeColor=none;fillColor=none;align=center;verticalAlign=middle;whiteSpace=wrap;rounded=0;fontStyle=1;fontSize=17;fontFamily=Garamond;" parent="149" vertex="1">
          <mxGeometry width="30" height="30" as="geometry" />
        </mxCell>
        <mxCell id="153" style="edgeStyle=none;jumpSize=2;html=1;entryX=0;entryY=0.5;entryDx=0;entryDy=0;strokeColor=default;endArrow=classicThin;endFill=1;startSize=2;endSize=2;fontStyle=1;fontSize=17;fontFamily=Garamond;" parent="119" source="146" target="159" edge="1">
          <mxGeometry relative="1" as="geometry" />
        </mxCell>
        <mxCell id="154" value="" style="group;fontStyle=1;fontSize=17;fontFamily=Garamond;" parent="119" vertex="1" connectable="0">
          <mxGeometry x="300" width="170" height="30" as="geometry" />
        </mxCell>
        <mxCell id="155" value="" style="rounded=0;whiteSpace=wrap;html=1;fillColor=#e3c800;container=0;fontColor=#000000;strokeColor=#B09500;fontStyle=1;fontSize=17;fontFamily=Garamond;" parent="154" vertex="1">
          <mxGeometry x="10" width="10" height="30" as="geometry" />
        </mxCell>
        <mxCell id="156" value="" style="rounded=0;whiteSpace=wrap;html=1;fillColor=#dae8fc;container=0;strokeColor=#000000;fontStyle=1;fontSize=17;fontFamily=Garamond;" parent="154" vertex="1">
          <mxGeometry x="25" width="10" height="30" as="geometry" />
        </mxCell>
        <mxCell id="157" style="edgeStyle=none;jumpSize=2;html=1;entryX=0;entryY=0.5;entryDx=0;entryDy=0;strokeColor=default;endArrow=classicThin;endFill=1;startSize=2;endSize=2;fontStyle=1;fontSize=17;fontFamily=Garamond;" parent="154" source="155" target="156" edge="1">
          <mxGeometry relative="1" as="geometry" />
        </mxCell>
        <mxCell id="158" style="edgeStyle=none;jumpSize=2;html=1;entryX=0;entryY=0.5;entryDx=0;entryDy=0;strokeColor=default;endArrow=classicThin;endFill=1;startSize=2;endSize=2;fontStyle=1;fontSize=17;fontFamily=Garamond;" parent="154" source="159" target="155" edge="1">
          <mxGeometry relative="1" as="geometry" />
        </mxCell>
        <mxCell id="159" value="" style="rounded=0;whiteSpace=wrap;html=1;fillColor=#e3c800;container=0;fontColor=#000000;strokeColor=#B09500;fontStyle=1;fontSize=17;fontFamily=Garamond;" parent="154" vertex="1">
          <mxGeometry width="6" height="30" as="geometry" />
        </mxCell>
        <mxCell id="160" value="" style="rounded=0;whiteSpace=wrap;html=1;fillColor=#dae8fc;container=0;strokeColor=#000000;fontStyle=1;fontSize=17;fontFamily=Garamond;" parent="154" vertex="1">
          <mxGeometry x="40" width="16" height="30" as="geometry" />
        </mxCell>
        <mxCell id="161" style="edgeStyle=none;jumpSize=2;html=1;entryX=0;entryY=0.5;entryDx=0;entryDy=0;strokeColor=default;endArrow=classicThin;endFill=1;startSize=2;endSize=2;fontStyle=1;fontSize=17;fontFamily=Garamond;" parent="154" source="156" target="160" edge="1">
          <mxGeometry relative="1" as="geometry" />
        </mxCell>
        <mxCell id="162" value="" style="rounded=0;whiteSpace=wrap;html=1;fillColor=#dae8fc;container=0;strokeColor=#000000;fontStyle=1;fontSize=17;fontFamily=Garamond;" parent="154" vertex="1">
          <mxGeometry x="78" width="16" height="30" as="geometry" />
        </mxCell>
        <mxCell id="163" style="edgeStyle=none;jumpSize=2;html=1;entryX=0;entryY=0.5;entryDx=0;entryDy=0;startSize=2;endSize=2;strokeColor=default;dashed=1;dashPattern=1 1;endArrow=none;endFill=0;fontStyle=1;fontSize=17;fontFamily=Garamond;" parent="154" source="160" target="162" edge="1">
          <mxGeometry relative="1" as="geometry" />
        </mxCell>
        <mxCell id="164" value="..." style="edgeLabel;html=1;align=center;verticalAlign=middle;resizable=0;points=[];fontStyle=1;fontFamily=Garamond;fontSize=17;" parent="163" vertex="1" connectable="0">
          <mxGeometry x="0.2294" y="1" relative="1" as="geometry">
            <mxPoint as="offset" />
          </mxGeometry>
        </mxCell>
        <mxCell id="165" value="" style="rounded=0;whiteSpace=wrap;html=1;fillColor=#dae8fc;container=0;strokeColor=#000000;fontStyle=1;fontSize=17;fontFamily=Garamond;" parent="154" vertex="1">
          <mxGeometry x="100" width="20" height="30" as="geometry" />
        </mxCell>
        <mxCell id="166" style="edgeStyle=none;jumpSize=2;html=1;entryX=0;entryY=0.5;entryDx=0;entryDy=0;strokeColor=default;endArrow=classicThin;endFill=1;startSize=2;endSize=2;fontStyle=1;fontSize=17;fontFamily=Garamond;" parent="154" source="162" target="165" edge="1">
          <mxGeometry relative="1" as="geometry" />
        </mxCell>
        <mxCell id="167" value="" style="rounded=0;whiteSpace=wrap;html=1;fillColor=#dae8fc;container=0;strokeColor=#000000;fontStyle=1;fontSize=17;fontFamily=Garamond;" parent="154" vertex="1">
          <mxGeometry x="126" width="40" height="30" as="geometry" />
        </mxCell>
        <mxCell id="168" style="edgeStyle=none;jumpSize=2;html=1;entryX=0;entryY=0.5;entryDx=0;entryDy=0;strokeColor=default;endArrow=classicThin;endFill=1;startSize=2;endSize=2;fontStyle=1;fontSize=17;fontFamily=Garamond;" parent="154" source="165" target="167" edge="1">
          <mxGeometry relative="1" as="geometry" />
        </mxCell>
        <mxCell id="256" value="" style="rounded=0;whiteSpace=wrap;html=1;fillColor=#dae8fc;container=0;strokeColor=#000000;fontStyle=1;fontSize=17;fontFamily=Garamond;" parent="154" vertex="1">
          <mxGeometry width="6" height="30" as="geometry" />
        </mxCell>
        <mxCell id="257" value="" style="rounded=0;whiteSpace=wrap;html=1;fillColor=#dae8fc;container=0;strokeColor=#000000;fontStyle=1;fontSize=17;fontFamily=Garamond;" parent="154" vertex="1">
          <mxGeometry x="10" width="10" height="30" as="geometry" />
        </mxCell>
        <mxCell id="169" value="" style="group;fontStyle=1;fontSize=17;fontFamily=Garamond;strokeColor=#000000;" parent="1" vertex="1" connectable="0">
          <mxGeometry x="40" y="570" width="590" height="85" as="geometry" />
        </mxCell>
        <mxCell id="170" value="" style="group;fontStyle=1;fontSize=17;fontFamily=Garamond;" parent="169" vertex="1" connectable="0">
          <mxGeometry x="140" y="50" width="170" height="30" as="geometry" />
        </mxCell>
        <mxCell id="171" value="" style="rounded=0;whiteSpace=wrap;html=1;fillColor=#dae8fc;container=0;strokeColor=#000000;fontStyle=1;fontSize=17;fontFamily=Garamond;" parent="170" vertex="1">
          <mxGeometry x="10" width="10" height="30" as="geometry" />
        </mxCell>
        <mxCell id="172" value="" style="rounded=0;whiteSpace=wrap;html=1;fillColor=#dae8fc;container=0;strokeColor=#000000;fontStyle=1;fontSize=17;fontFamily=Garamond;" parent="170" vertex="1">
          <mxGeometry x="25" width="10" height="30" as="geometry" />
        </mxCell>
        <mxCell id="173" style="edgeStyle=none;jumpSize=2;html=1;entryX=0;entryY=0.5;entryDx=0;entryDy=0;strokeColor=default;endArrow=classicThin;endFill=1;startSize=2;endSize=2;fontStyle=1;fontSize=17;fontFamily=Garamond;" parent="170" source="171" target="172" edge="1">
          <mxGeometry relative="1" as="geometry" />
        </mxCell>
        <mxCell id="174" style="edgeStyle=none;jumpSize=2;html=1;entryX=0;entryY=0.5;entryDx=0;entryDy=0;strokeColor=default;endArrow=classicThin;endFill=1;startSize=2;endSize=2;fontStyle=1;fontSize=17;fontFamily=Garamond;" parent="170" source="175" target="171" edge="1">
          <mxGeometry relative="1" as="geometry" />
        </mxCell>
        <mxCell id="175" value="" style="rounded=0;whiteSpace=wrap;html=1;fillColor=#dae8fc;container=0;strokeColor=#000000;fontStyle=1;fontSize=17;fontFamily=Garamond;" parent="170" vertex="1">
          <mxGeometry width="6" height="30" as="geometry" />
        </mxCell>
        <mxCell id="176" value="" style="rounded=0;whiteSpace=wrap;html=1;fillColor=#cce5ff;container=0;strokeColor=#36393d;fontStyle=1;fontSize=17;fontFamily=Garamond;" parent="170" vertex="1">
          <mxGeometry x="40" width="16" height="30" as="geometry" />
        </mxCell>
        <mxCell id="177" style="edgeStyle=none;jumpSize=2;html=1;entryX=0;entryY=0.5;entryDx=0;entryDy=0;strokeColor=default;endArrow=classicThin;endFill=1;startSize=2;endSize=2;fontStyle=1;fontSize=17;fontFamily=Garamond;" parent="170" source="172" target="176" edge="1">
          <mxGeometry relative="1" as="geometry" />
        </mxCell>
        <mxCell id="178" value="" style="rounded=0;whiteSpace=wrap;html=1;fillColor=#cce5ff;container=0;strokeColor=#36393d;fontStyle=1;fontSize=17;fontFamily=Garamond;" parent="170" vertex="1">
          <mxGeometry x="78" width="16" height="30" as="geometry" />
        </mxCell>
        <mxCell id="179" style="edgeStyle=none;jumpSize=2;html=1;entryX=0;entryY=0.5;entryDx=0;entryDy=0;startSize=2;endSize=2;strokeColor=default;dashed=1;dashPattern=1 1;endArrow=none;endFill=0;fontStyle=1;fontSize=17;fontFamily=Garamond;" parent="170" source="176" target="178" edge="1">
          <mxGeometry relative="1" as="geometry" />
        </mxCell>
        <mxCell id="180" value="..." style="edgeLabel;html=1;align=center;verticalAlign=middle;resizable=0;points=[];fontStyle=1;fontFamily=Garamond;fontSize=17;" parent="179" vertex="1" connectable="0">
          <mxGeometry x="0.0563" y="2" relative="1" as="geometry">
            <mxPoint as="offset" />
          </mxGeometry>
        </mxCell>
        <mxCell id="181" value="" style="rounded=0;whiteSpace=wrap;html=1;fillColor=#d80073;container=0;fontColor=#ffffff;strokeColor=#A50040;fontStyle=1;fontSize=17;fontFamily=Garamond;" parent="170" vertex="1">
          <mxGeometry x="100" width="20" height="30" as="geometry" />
        </mxCell>
        <mxCell id="182" style="edgeStyle=none;jumpSize=2;html=1;entryX=0;entryY=0.5;entryDx=0;entryDy=0;strokeColor=default;endArrow=classicThin;endFill=1;startSize=2;endSize=2;fontStyle=1;fontSize=17;fontFamily=Garamond;" parent="170" source="178" target="181" edge="1">
          <mxGeometry relative="1" as="geometry" />
        </mxCell>
        <mxCell id="183" value="" style="rounded=0;whiteSpace=wrap;html=1;fillColor=#d80073;container=0;fontColor=#ffffff;strokeColor=#A50040;fontStyle=1;fontSize=17;fontFamily=Garamond;" parent="170" vertex="1">
          <mxGeometry x="126" width="40" height="30" as="geometry" />
        </mxCell>
        <mxCell id="184" style="edgeStyle=none;jumpSize=2;html=1;entryX=0;entryY=0.5;entryDx=0;entryDy=0;strokeColor=default;endArrow=classicThin;endFill=1;startSize=2;endSize=2;fontStyle=1;fontSize=17;fontFamily=Garamond;" parent="170" source="181" target="183" edge="1">
          <mxGeometry relative="1" as="geometry" />
        </mxCell>
        <mxCell id="263" value="" style="rounded=0;whiteSpace=wrap;html=1;fillColor=#cce5ff;container=0;strokeColor=none;fontStyle=1;fontSize=17;fontFamily=Garamond;" parent="170" vertex="1">
          <mxGeometry x="126" width="40" height="30" as="geometry" />
        </mxCell>
        <mxCell id="264" value="" style="rounded=0;whiteSpace=wrap;html=1;fillColor=#cce5ff;container=0;strokeColor=#36393d;fontStyle=1;fontSize=17;fontFamily=Garamond;" parent="170" vertex="1">
          <mxGeometry x="100" width="20" height="30" as="geometry" />
        </mxCell>
        <mxCell id="266" value="" style="rounded=0;whiteSpace=wrap;html=1;fillColor=#cce5ff;container=0;strokeColor=none;fontStyle=1;fontSize=17;fontFamily=Garamond;" parent="170" vertex="1">
          <mxGeometry x="126" width="40" height="30" as="geometry" />
        </mxCell>
        <mxCell id="267" value="" style="rounded=0;whiteSpace=wrap;html=1;fillColor=#cce5ff;container=0;strokeColor=#36393d;fontStyle=1;fontSize=17;fontFamily=Garamond;" parent="170" vertex="1">
          <mxGeometry x="100" width="20" height="30" as="geometry" />
        </mxCell>
        <mxCell id="268" value="" style="rounded=0;whiteSpace=wrap;html=1;fillColor=#cce5ff;container=0;strokeColor=none;fontStyle=1;fontSize=17;fontFamily=Garamond;" parent="170" vertex="1">
          <mxGeometry x="126" width="40" height="30" as="geometry" />
        </mxCell>
        <mxCell id="269" value="" style="rounded=0;whiteSpace=wrap;html=1;fillColor=#cce5ff;container=0;strokeColor=#36393d;fontStyle=1;fontSize=17;fontFamily=Garamond;" parent="170" vertex="1">
          <mxGeometry x="100" width="20" height="30" as="geometry" />
        </mxCell>
        <mxCell id="270" value="" style="rounded=0;whiteSpace=wrap;html=1;fillColor=#cce5ff;container=0;strokeColor=none;fontStyle=1;fontSize=17;fontFamily=Garamond;" parent="170" vertex="1">
          <mxGeometry x="126" width="40" height="30" as="geometry" />
        </mxCell>
        <mxCell id="271" value="" style="rounded=0;whiteSpace=wrap;html=1;fillColor=#cce5ff;container=0;strokeColor=#36393d;fontStyle=1;fontSize=17;fontFamily=Garamond;" parent="170" vertex="1">
          <mxGeometry x="100" width="20" height="30" as="geometry" />
        </mxCell>
        <mxCell id="272" value="" style="rounded=0;whiteSpace=wrap;html=1;fillColor=#cce5ff;container=0;strokeColor=#36393d;fontStyle=1;fontSize=17;fontFamily=Garamond;" parent="170" vertex="1">
          <mxGeometry x="78" width="16" height="30" as="geometry" />
        </mxCell>
        <mxCell id="273" value="" style="rounded=0;whiteSpace=wrap;html=1;fillColor=#cce5ff;container=0;strokeColor=#36393d;fontStyle=1;fontSize=17;fontFamily=Garamond;" parent="170" vertex="1">
          <mxGeometry x="40" width="16" height="30" as="geometry" />
        </mxCell>
        <mxCell id="274" value="" style="rounded=0;whiteSpace=wrap;html=1;fillColor=#cce5ff;container=0;strokeColor=none;fontStyle=1;fontSize=17;fontFamily=Garamond;" parent="170" vertex="1">
          <mxGeometry x="126" width="40" height="30" as="geometry" />
        </mxCell>
        <mxCell id="275" value="" style="rounded=0;whiteSpace=wrap;html=1;fillColor=#cce5ff;container=0;strokeColor=#36393d;fontStyle=1;fontSize=17;fontFamily=Garamond;" parent="170" vertex="1">
          <mxGeometry x="100" width="20" height="30" as="geometry" />
        </mxCell>
        <mxCell id="276" value="" style="rounded=0;whiteSpace=wrap;html=1;fillColor=#cce5ff;container=0;strokeColor=#36393d;fontStyle=1;fontSize=17;fontFamily=Garamond;" parent="170" vertex="1">
          <mxGeometry x="78" width="16" height="30" as="geometry" />
        </mxCell>
        <mxCell id="277" value="" style="rounded=0;whiteSpace=wrap;html=1;fillColor=#cce5ff;container=0;strokeColor=#36393d;fontStyle=1;fontSize=17;fontFamily=Garamond;" parent="170" vertex="1">
          <mxGeometry x="40" width="16" height="30" as="geometry" />
        </mxCell>
        <mxCell id="278" value="" style="rounded=0;whiteSpace=wrap;html=1;fillColor=#cce5ff;container=0;strokeColor=none;fontStyle=1;fontSize=17;fontFamily=Garamond;" parent="170" vertex="1">
          <mxGeometry x="126" width="40" height="30" as="geometry" />
        </mxCell>
        <mxCell id="279" value="" style="rounded=0;whiteSpace=wrap;html=1;fillColor=#cce5ff;container=0;strokeColor=none;fontStyle=1;fontSize=17;fontFamily=Garamond;" parent="170" vertex="1">
          <mxGeometry x="100" width="20" height="30" as="geometry" />
        </mxCell>
        <mxCell id="280" value="" style="rounded=0;whiteSpace=wrap;html=1;fillColor=#cce5ff;container=0;strokeColor=none;fontStyle=1;fontSize=17;fontFamily=Garamond;" parent="170" vertex="1">
          <mxGeometry x="78" width="16" height="30" as="geometry" />
        </mxCell>
        <mxCell id="281" value="" style="rounded=0;whiteSpace=wrap;html=1;fillColor=#dae8fc;container=0;strokeColor=#000000;fontStyle=1;fontSize=17;fontFamily=Garamond;" parent="170" vertex="1">
          <mxGeometry x="40" width="16" height="30" as="geometry" />
        </mxCell>
        <mxCell id="338" value="" style="rounded=0;whiteSpace=wrap;html=1;fillColor=#dae8fc;container=0;strokeColor=#000000;fontStyle=1;fontSize=17;fontFamily=Garamond;" parent="170" vertex="1">
          <mxGeometry x="126" width="40" height="30" as="geometry" />
        </mxCell>
        <mxCell id="339" value="" style="rounded=0;whiteSpace=wrap;html=1;fillColor=#dae8fc;container=0;strokeColor=#000000;fontStyle=1;fontSize=17;fontFamily=Garamond;" parent="170" vertex="1">
          <mxGeometry x="100" width="20" height="30" as="geometry" />
        </mxCell>
        <mxCell id="340" value="" style="rounded=0;whiteSpace=wrap;html=1;fillColor=#dae8fc;container=0;strokeColor=#000000;fontStyle=1;fontSize=17;fontFamily=Garamond;" parent="170" vertex="1">
          <mxGeometry x="78" width="16" height="30" as="geometry" />
        </mxCell>
        <mxCell id="185" value="" style="group;fontStyle=1;fontSize=17;fontFamily=Garamond;" parent="169" vertex="1" connectable="0">
          <mxGeometry x="120" width="80" height="30" as="geometry" />
        </mxCell>
        <mxCell id="186" value="" style="rounded=0;whiteSpace=wrap;html=1;fillColor=#e1d5e7;strokeColor=none;fontStyle=1;fontSize=17;fontFamily=Garamond;" parent="185" vertex="1">
          <mxGeometry x="70" width="10" height="30" as="geometry" />
        </mxCell>
        <mxCell id="187" style="edgeStyle=none;jumpSize=2;html=1;entryX=0;entryY=0.5;entryDx=0;entryDy=0;startSize=2;endSize=2;fontStyle=1;fontSize=17;fontFamily=Garamond;" parent="185" source="188" target="186" edge="1">
          <mxGeometry relative="1" as="geometry" />
        </mxCell>
        <mxCell id="188" value="S2" style="text;html=1;strokeColor=none;fillColor=none;align=center;verticalAlign=middle;whiteSpace=wrap;rounded=0;fontStyle=1;fontSize=17;fontFamily=Garamond;" parent="185" vertex="1">
          <mxGeometry width="30" height="30" as="geometry" />
        </mxCell>
        <mxCell id="189" value="" style="group;fontStyle=1;fontSize=17;fontFamily=Garamond;" parent="169" vertex="1" connectable="0">
          <mxGeometry x="240" width="80" height="30" as="geometry" />
        </mxCell>
        <mxCell id="190" value="" style="rounded=0;whiteSpace=wrap;html=1;fillColor=#ffcccc;strokeColor=none;fontStyle=1;fontSize=17;fontFamily=Garamond;" parent="189" vertex="1">
          <mxGeometry x="70" width="10" height="30" as="geometry" />
        </mxCell>
        <mxCell id="191" style="edgeStyle=none;jumpSize=2;html=1;entryX=0;entryY=0.5;entryDx=0;entryDy=0;startSize=2;endSize=2;fontStyle=1;fontSize=17;fontFamily=Garamond;" parent="189" source="192" target="190" edge="1">
          <mxGeometry relative="1" as="geometry" />
        </mxCell>
        <mxCell id="192" value="S3" style="text;html=1;strokeColor=none;fillColor=none;align=center;verticalAlign=middle;whiteSpace=wrap;rounded=0;fontStyle=1;fontSize=17;fontFamily=Garamond;" parent="189" vertex="1">
          <mxGeometry width="30" height="30" as="geometry" />
        </mxCell>
        <mxCell id="193" value="" style="group;fontStyle=1;fontSize=17;fontFamily=Garamond;" parent="169" vertex="1" connectable="0">
          <mxGeometry x="360" width="80" height="30" as="geometry" />
        </mxCell>
        <mxCell id="194" value="" style="rounded=0;whiteSpace=wrap;html=1;fillColor=#ffcc99;strokeColor=none;fontStyle=1;fontSize=17;fontFamily=Garamond;" parent="193" vertex="1">
          <mxGeometry x="40" width="10" height="30" as="geometry" />
        </mxCell>
        <mxCell id="195" style="edgeStyle=none;jumpSize=2;html=1;entryX=0;entryY=0.5;entryDx=0;entryDy=0;startSize=2;endSize=2;fontStyle=1;fontSize=17;fontFamily=Garamond;" parent="193" source="196" target="194" edge="1">
          <mxGeometry relative="1" as="geometry" />
        </mxCell>
        <mxCell id="196" value="S4" style="text;html=1;strokeColor=none;fillColor=none;align=center;verticalAlign=middle;whiteSpace=wrap;rounded=0;fontStyle=1;fontSize=17;fontFamily=Garamond;" parent="193" vertex="1">
          <mxGeometry width="30" height="30" as="geometry" />
        </mxCell>
        <mxCell id="197" value="S1" style="text;html=1;strokeColor=none;fillColor=none;align=center;verticalAlign=middle;whiteSpace=wrap;rounded=0;fontStyle=1;fontSize=17;fontFamily=Garamond;" parent="169" vertex="1">
          <mxGeometry width="30" height="30" as="geometry" />
        </mxCell>
        <mxCell id="198" value="" style="rounded=0;whiteSpace=wrap;html=1;fillColor=#cdeb8b;strokeColor=none;fontStyle=1;fontSize=17;fontFamily=Garamond;" parent="169" vertex="1">
          <mxGeometry x="70" width="10" height="30" as="geometry" />
        </mxCell>
        <mxCell id="199" style="edgeStyle=none;jumpSize=2;html=1;entryX=0;entryY=0.5;entryDx=0;entryDy=0;startSize=2;endSize=2;fontStyle=1;fontSize=17;fontFamily=Garamond;" parent="169" source="197" target="198" edge="1">
          <mxGeometry relative="1" as="geometry" />
        </mxCell>
        <mxCell id="200" value="" style="group;fontStyle=1;fontSize=17;fontFamily=Garamond;" parent="169" vertex="1" connectable="0">
          <mxGeometry x="420" width="170" height="30" as="geometry" />
        </mxCell>
        <mxCell id="201" value="" style="rounded=0;whiteSpace=wrap;html=1;fillColor=#dae8fc;container=0;strokeColor=#000000;fontStyle=1;fontSize=17;fontFamily=Garamond;" parent="200" vertex="1">
          <mxGeometry x="10" width="10" height="30" as="geometry" />
        </mxCell>
        <mxCell id="202" value="" style="rounded=0;whiteSpace=wrap;html=1;fillColor=#dae8fc;container=0;strokeColor=#000000;fontStyle=1;fontSize=17;fontFamily=Garamond;" parent="200" vertex="1">
          <mxGeometry x="25" width="10" height="30" as="geometry" />
        </mxCell>
        <mxCell id="203" style="edgeStyle=none;jumpSize=2;html=1;entryX=0;entryY=0.5;entryDx=0;entryDy=0;strokeColor=default;endArrow=classicThin;endFill=1;startSize=2;endSize=2;fontStyle=1;fontSize=17;fontFamily=Garamond;" parent="200" source="201" target="202" edge="1">
          <mxGeometry relative="1" as="geometry" />
        </mxCell>
        <mxCell id="204" style="edgeStyle=none;jumpSize=2;html=1;entryX=0;entryY=0.5;entryDx=0;entryDy=0;strokeColor=default;endArrow=classicThin;endFill=1;startSize=2;endSize=2;fontStyle=1;fontSize=17;fontFamily=Garamond;" parent="200" source="205" target="201" edge="1">
          <mxGeometry relative="1" as="geometry" />
        </mxCell>
        <mxCell id="205" value="" style="rounded=0;whiteSpace=wrap;html=1;fillColor=#dae8fc;container=0;strokeColor=#000000;fontStyle=1;fontSize=17;fontFamily=Garamond;" parent="200" vertex="1">
          <mxGeometry width="6" height="30" as="geometry" />
        </mxCell>
        <mxCell id="265" value="" style="edgeStyle=none;html=1;fontSize=17;fontStyle=1;fontFamily=Garamond;" parent="200" source="206" target="213" edge="1">
          <mxGeometry relative="1" as="geometry" />
        </mxCell>
        <mxCell id="206" value="" style="rounded=0;whiteSpace=wrap;html=1;fillColor=#dae8fc;container=0;strokeColor=#000000;fontStyle=1;fontSize=17;fontFamily=Garamond;" parent="200" vertex="1">
          <mxGeometry x="40" width="16" height="30" as="geometry" />
        </mxCell>
        <mxCell id="207" style="edgeStyle=none;jumpSize=2;html=1;entryX=0;entryY=0.5;entryDx=0;entryDy=0;strokeColor=default;endArrow=classicThin;endFill=1;startSize=2;endSize=2;fontStyle=1;fontSize=17;fontFamily=Garamond;" parent="200" source="202" target="206" edge="1">
          <mxGeometry relative="1" as="geometry" />
        </mxCell>
        <mxCell id="208" value="" style="rounded=0;whiteSpace=wrap;html=1;fillColor=#dae8fc;container=0;strokeColor=#000000;fontStyle=1;fontSize=17;fontFamily=Garamond;" parent="200" vertex="1">
          <mxGeometry x="78" width="16" height="30" as="geometry" />
        </mxCell>
        <mxCell id="209" style="edgeStyle=none;jumpSize=2;html=1;entryX=0;entryY=0.5;entryDx=0;entryDy=0;startSize=2;endSize=2;strokeColor=default;dashed=1;dashPattern=1 1;endArrow=none;endFill=0;fontStyle=1;fontSize=17;fontFamily=Garamond;" parent="200" source="206" target="208" edge="1">
          <mxGeometry relative="1" as="geometry" />
        </mxCell>
        <mxCell id="210" value="..." style="edgeLabel;html=1;align=center;verticalAlign=middle;resizable=0;points=[];fontStyle=1;fontFamily=Garamond;fontSize=17;" parent="209" vertex="1" connectable="0">
          <mxGeometry x="-0.2468" y="-2" relative="1" as="geometry">
            <mxPoint as="offset" />
          </mxGeometry>
        </mxCell>
        <mxCell id="211" value="" style="rounded=0;whiteSpace=wrap;html=1;fillColor=#dae8fc;container=0;strokeColor=#000000;fontStyle=1;fontSize=17;fontFamily=Garamond;" parent="200" vertex="1">
          <mxGeometry x="100" width="20" height="30" as="geometry" />
        </mxCell>
        <mxCell id="212" style="edgeStyle=none;jumpSize=2;html=1;entryX=0;entryY=0.5;entryDx=0;entryDy=0;strokeColor=default;endArrow=classicThin;endFill=1;startSize=2;endSize=2;fontStyle=1;fontSize=17;fontFamily=Garamond;" parent="200" source="208" target="211" edge="1">
          <mxGeometry relative="1" as="geometry" />
        </mxCell>
        <mxCell id="213" value="" style="rounded=0;whiteSpace=wrap;html=1;fillColor=#dae8fc;container=0;strokeColor=#000000;fontStyle=1;fontSize=17;fontFamily=Garamond;" parent="200" vertex="1">
          <mxGeometry x="126" width="40" height="30" as="geometry" />
        </mxCell>
        <mxCell id="214" style="edgeStyle=none;jumpSize=2;html=1;entryX=0;entryY=0.5;entryDx=0;entryDy=0;strokeColor=default;endArrow=classicThin;endFill=1;startSize=2;endSize=2;fontStyle=1;fontSize=17;fontFamily=Garamond;" parent="200" source="211" target="213" edge="1">
          <mxGeometry relative="1" as="geometry" />
        </mxCell>
        <mxCell id="215" style="edgeStyle=none;jumpSize=2;html=1;entryX=0;entryY=0.5;entryDx=0;entryDy=0;strokeColor=default;endArrow=classicThin;endFill=1;startSize=2;endSize=2;fontStyle=1;fontSize=17;fontFamily=Garamond;" parent="169" source="216" target="175" edge="1">
          <mxGeometry relative="1" as="geometry" />
        </mxCell>
        <mxCell id="216" value="Shared Pool" style="text;html=1;align=center;verticalAlign=middle;resizable=0;points=[];autosize=1;strokeColor=none;fillColor=none;fontStyle=1;fontSize=17;fontFamily=Garamond;" parent="169" vertex="1">
          <mxGeometry x="20" y="50" width="120" height="30" as="geometry" />
        </mxCell>
        <mxCell id="217" style="edgeStyle=none;jumpSize=2;html=1;entryX=0;entryY=0.5;entryDx=0;entryDy=0;strokeColor=default;endArrow=classicThin;endFill=1;startSize=2;endSize=2;fontStyle=1;fontSize=17;fontFamily=Garamond;" parent="169" source="194" target="205" edge="1">
          <mxGeometry relative="1" as="geometry" />
        </mxCell>
        <mxCell id="218" value="" style="group;fontStyle=1;fontSize=17;fontFamily=Garamond;" parent="1" vertex="1" connectable="0">
          <mxGeometry x="40" y="150" width="610" height="30" as="geometry" />
        </mxCell>
        <mxCell id="219" value="" style="group;fontStyle=1;fontSize=17;fontFamily=Garamond;" parent="218" vertex="1" connectable="0">
          <mxGeometry width="130" height="30" as="geometry" />
        </mxCell>
        <mxCell id="220" value="S1" style="text;html=1;strokeColor=none;fillColor=none;align=center;verticalAlign=middle;whiteSpace=wrap;rounded=0;fontStyle=1;fontSize=17;fontFamily=Garamond;" parent="219" vertex="1">
          <mxGeometry width="30" height="30" as="geometry" />
        </mxCell>
        <mxCell id="221" style="edgeStyle=none;html=1;fontStyle=1;fontSize=17;fontFamily=Garamond;" parent="219" source="220" edge="1">
          <mxGeometry relative="1" as="geometry">
            <mxPoint x="90" y="15" as="targetPoint" />
          </mxGeometry>
        </mxCell>
        <mxCell id="222" value="" style="rounded=0;whiteSpace=wrap;html=1;fillColor=#cdeb8b;strokeColor=none;fontStyle=1;fontSize=17;fontFamily=Garamond;" parent="219" vertex="1">
          <mxGeometry x="90" width="10" height="30" as="geometry" />
        </mxCell>
        <mxCell id="223" value="" style="group;fontStyle=1;fontSize=17;fontFamily=Garamond;" parent="218" vertex="1" connectable="0">
          <mxGeometry x="160" width="130" height="30" as="geometry" />
        </mxCell>
        <mxCell id="224" value="S2" style="text;html=1;strokeColor=none;fillColor=none;align=center;verticalAlign=middle;whiteSpace=wrap;rounded=0;fontStyle=1;fontSize=17;fontFamily=Garamond;" parent="223" vertex="1">
          <mxGeometry width="30" height="30" as="geometry" />
        </mxCell>
        <mxCell id="225" style="edgeStyle=none;html=1;fontStyle=1;fontSize=17;fontFamily=Garamond;" parent="223" source="224" edge="1">
          <mxGeometry relative="1" as="geometry">
            <mxPoint x="90" y="15" as="targetPoint" />
          </mxGeometry>
        </mxCell>
        <mxCell id="226" value="" style="rounded=0;whiteSpace=wrap;html=1;fillColor=#e1d5e7;strokeColor=none;fontStyle=1;fontSize=17;fontFamily=Garamond;" parent="223" vertex="1">
          <mxGeometry x="90" width="10" height="30" as="geometry" />
        </mxCell>
        <mxCell id="227" value="" style="group;fontStyle=1;fontSize=17;fontFamily=Garamond;" parent="218" vertex="1" connectable="0">
          <mxGeometry x="320" width="130" height="30" as="geometry" />
        </mxCell>
        <mxCell id="228" value="S3" style="text;html=1;strokeColor=none;fillColor=none;align=center;verticalAlign=middle;whiteSpace=wrap;rounded=0;fontStyle=1;fontSize=17;fontFamily=Garamond;" parent="227" vertex="1">
          <mxGeometry width="30" height="30" as="geometry" />
        </mxCell>
        <mxCell id="229" style="edgeStyle=none;html=1;fontStyle=1;fontSize=17;fontFamily=Garamond;" parent="227" source="228" edge="1">
          <mxGeometry relative="1" as="geometry">
            <mxPoint x="90" y="15" as="targetPoint" />
          </mxGeometry>
        </mxCell>
        <mxCell id="230" value="" style="rounded=0;whiteSpace=wrap;html=1;fillColor=#ffcccc;strokeColor=none;fontStyle=1;fontSize=17;fontFamily=Garamond;" parent="227" vertex="1">
          <mxGeometry x="90" width="10" height="30" as="geometry" />
        </mxCell>
        <mxCell id="231" value="" style="group;fontStyle=1;fontSize=17;fontFamily=Garamond;" parent="218" vertex="1" connectable="0">
          <mxGeometry x="480" width="130" height="30" as="geometry" />
        </mxCell>
        <mxCell id="232" value="S4" style="text;html=1;strokeColor=none;fillColor=none;align=center;verticalAlign=middle;whiteSpace=wrap;rounded=0;fontStyle=1;fontSize=17;fontFamily=Garamond;" parent="231" vertex="1">
          <mxGeometry width="30" height="30" as="geometry" />
        </mxCell>
        <mxCell id="233" style="edgeStyle=none;html=1;fontStyle=1;fontSize=17;fontFamily=Garamond;" parent="231" source="232" edge="1">
          <mxGeometry relative="1" as="geometry">
            <mxPoint x="90" y="15" as="targetPoint" />
          </mxGeometry>
        </mxCell>
        <mxCell id="234" value="" style="rounded=0;whiteSpace=wrap;html=1;fillColor=#ffcc99;strokeColor=none;fontStyle=1;fontSize=17;fontFamily=Garamond;" parent="231" vertex="1">
          <mxGeometry x="90" width="10" height="30" as="geometry" />
        </mxCell>
      </root>
    </mxGraphModel>
  </diagram>
</mxfile>
